<svg viewBox="0 0 192 205" fill="none" xmlns="http://www.w3.org/2000/svg">
    <path d="M167.677 119.615C167.677 119.615 186.177 121.673 178.983 143.273C175.385 152.531 170.247 157.159 160.483 158.188C150.719 159.216 167.677 119.615 167.677 119.615H167.677Z" fill="#F89269"/>
    <path d="M111.665 189.045L112.488 203.095C112.488 203.095 95.0156 205.667 77.5435 202.581C77.5435 202.581 77.8527 194.183 76.5156 183.037L111.664 189.045H111.665Z" fill="#F89269"/>
    <path d="M157.453 75.7186C157.453 75.7186 167.677 94.9292 161.511 141.216C161.511 141.216 175.899 190.589 99.8446 192.131C77.2339 192.131 53.0812 184.931 37.6647 163.331C37.6647 163.331 20.5522 170.181 8.57196 154.417C3.97217 148.364 2.12873 140.57 4.11177 133.229C5.91394 126.558 10.7501 120.301 23.276 124.758L36.1231 50.1853L111.15 32.6991L157.453 75.7186Z" fill="#FABA83"/>
    <path d="M161.173 87.7835C163.249 89.6423 105.335 75.2256 94.4494 63.6855L107.04 79.5002C107.04 79.5002 101.901 91.8433 73.1234 69.2143C73.1234 69.2143 74.665 71.2715 74.1513 72.8143C73.6374 74.3571 61.8182 75.3858 46.9156 62.014L36.124 50.1853L111.151 32.6991L157.454 75.7186" fill="#F89269"/>
    <path opacity="0.7" d="M137.102 140.702C145.474 140.702 152.261 133.218 152.261 123.987C152.261 114.756 145.474 107.272 137.102 107.272C128.729 107.272 121.942 114.756 121.942 123.987C121.942 133.218 128.729 140.702 137.102 140.702Z" fill="white"/>
    <path opacity="0.7" d="M152.261 121.567C152.261 121.567 151.747 106.546 137.102 106.138C122.456 105.729 121.942 123.2 121.942 123.2C121.942 123.2 125.026 107.454 137.102 108.134C149.178 108.815 152.261 121.567 152.261 121.567Z" fill="#3F200E"/>
    <path d="M127.081 123.73C129.635 123.73 131.706 121.657 131.706 119.101C131.706 117.775 131.146 116.583 130.253 115.739C131.621 114.929 133.161 114.472 134.789 114.472C140.466 114.472 145.067 119.999 145.067 126.815C145.067 133.632 140.466 139.158 134.789 139.158C129.113 139.158 124.512 133.632 124.512 126.815C124.512 125.561 124.669 124.351 124.958 123.21C125.594 123.54 126.315 123.729 127.081 123.729L127.081 123.73Z" fill="#2E1E0E"/>
    <path opacity="0.7" d="M70.2964 141.216C78.9526 141.216 85.9698 133.423 85.9698 123.81C85.9698 114.197 78.9526 106.404 70.2964 106.404C61.6403 106.404 54.623 114.197 54.623 123.81C54.623 133.423 61.6403 141.216 70.2964 141.216Z" fill="white"/>
    <path opacity="0.7" d="M85.9698 121.29C85.9698 121.29 85.4385 105.648 70.2964 105.223C55.1543 104.797 54.623 122.991 54.623 122.991C54.623 122.991 57.8108 106.593 70.2964 107.302C82.7821 108.011 85.9698 121.29 85.9698 121.29Z" fill="#3F200E"/>
    <path d="M63.02 123.542C65.6611 123.542 67.8017 121.384 67.8017 118.722C67.8017 117.341 67.2225 116.1 66.2998 115.221C67.7144 114.377 69.3057 113.902 70.9894 113.902C76.8579 113.902 81.6155 119.657 81.6155 126.755C81.6155 133.854 76.8582 139.609 70.9894 139.609C65.1209 139.609 60.3633 133.854 60.3633 126.755C60.3633 125.449 60.5256 124.189 60.8249 123.001C61.4826 123.345 62.2278 123.542 63.0197 123.542H63.02Z" fill="#2E1E0E"/>
    <path d="M150.738 96.5351C148.747 94.8103 140.868 88.8252 129.275 90.7013C128.831 90.7732 128.377 90.6446 128.053 90.332C126.931 89.2494 124.944 86.5106 129.826 83.823C134.396 81.307 140.032 81.4278 144.473 84.1649C150.689 87.9961 154.653 95.1591 152.375 96.6928C151.873 97.0309 151.195 96.9318 150.738 96.5351Z" fill="#333330"/>
    <path d="M54.5041 96.6947C58.3936 94.009 67.8607 88.7577 79.9481 90.982C81.0091 91.1772 82.0738 90.6096 82.5254 89.5739C83.5234 87.2836 83.9775 83.3421 76.61 81.6321C71.8656 80.5309 66.8804 80.9686 62.4142 82.9905C55.5393 86.1029 52.5069 91.4932 52.0682 95.0976C51.8971 96.5039 53.3832 97.4689 54.5044 96.6947H54.5041Z" fill="#333330"/>
    <path d="M106.843 137.115C106.441 137.09 106.365 136.528 106.75 136.412C109.774 135.496 115.125 135.004 118.083 138.847C121.328 143.062 119.176 149.175 114.175 150.98C110.234 152.402 105.398 152.421 103.121 151.445C101.903 150.923 102.073 149.174 103.37 148.907C106.555 148.25 113.787 148.13 114.361 144.44C115.263 138.637 110.289 137.326 106.843 137.115Z" fill="#F89269"/>
    <path d="M106.811 174.499C100.04 174.499 92.2249 172.368 84.461 165.612C83.2856 164.589 83.1611 162.806 84.1837 161.629C85.2062 160.453 86.9867 160.328 88.1636 161.351C105.698 176.612 122.804 164.282 123.524 163.749C124.777 162.822 126.543 163.088 127.469 164.342C128.395 165.596 128.13 167.364 126.878 168.29C126.744 168.389 118.277 174.499 106.811 174.499H106.811Z" fill="#F89269"/>
    <path d="M34.4312 140.83C34.4312 140.83 26.1429 121.287 11.9714 123.73C11.9714 123.73 -16.9571 54.9424 20.5562 41.0565C20.5562 41.0565 0.000976562 42.0853 0.000976562 37.4565C0.000976562 37.4565 10.6715 25.1134 23.5791 37.4565C23.5791 37.4565 19.0146 15.856 37.5143 4.54163C46.2504 0.94164 39.5698 24.085 39.5698 24.085C39.5698 24.085 77.426 -17.8429 140.632 8.94393C141.681 9.38861 142.704 9.89067 143.712 10.423C149.126 13.2825 169.532 23.4265 184.998 22.5422C196.818 22.0278 179.86 41.5712 170.61 40.5428C170.61 40.5428 193.63 57.2093 191.853 76.1853C191.727 77.5376 191.208 78.8433 190.297 79.8506C188.717 81.5984 185.705 82.8441 180.888 77.058C180.888 77.058 178.977 119.157 162.025 137.617C162.025 137.617 166.832 103.998 158.7 82.8135C158.7 82.8135 113.055 74.4864 101.236 60.6005C101.236 60.6005 106.889 70.8864 108.944 79.1151C108.944 79.1151 114.597 96.6013 72.4585 63.6861C72.4585 63.6861 74.9977 67.8888 75.2697 70.4162C75.2697 70.4162 76.0556 83.7439 49.8474 60.6005C49.8474 60.6005 48.3059 86.3154 37.0004 97.6301C31.3477 103.802 39.5698 150.088 34.4309 140.831L34.4312 140.83Z" fill="black"/>
    <path d="M20.553 41.0568C-3.79403 51.1904 2.96905 80.3271 5.21679 87.9465C5.4295 88.6684 6.41488 88.7586 6.75615 88.0884C9.07479 83.5632 11.458 76.4143 11.458 76.4143C11.458 91.3308 16.5979 99.5561 29.4412 94.928C50.5098 79.5021 45.8851 49.669 45.8851 49.669C65.9295 74.8737 74.6636 68.1824 74.6636 68.1824C72.6412 64.1343 67.1276 51.6155 66.9603 51.2222C96.2477 83.6146 107.043 75.9371 107.552 74.8734C105.69 67.4151 94.5407 51.087 92.4669 48.0893C103.275 63.038 153.379 76.9492 162.023 78.4702C173.572 78.2447 176.413 76.9296 177.958 69.2134C181.037 49.6684 151.75 32.1863 151.75 32.1863C179.498 44.015 197.481 22.9295 184.998 22.5428C169.534 23.4259 149.128 13.2797 143.712 10.424C142.707 9.88877 141.682 9.38606 140.633 8.94139C77.4272 -17.8426 39.567 24.0834 39.567 24.0834C39.567 24.0834 45.3768 3.38451 36.6364 6.98166C18.3695 18.1594 24.1539 38.3553 24.2954 38.8647C11.3875 26.5329 0 37.453 0 37.453C0 42.0878 20.5533 41.0565 20.5533 41.0565L20.553 41.0568ZM99.333 42.9844C99.333 42.9844 146.61 49.5208 134.276 30.5691C134.276 30.5691 169.057 51.7385 160.658 58.1652C152.259 64.5856 99.333 42.9844 99.333 42.9844ZM20.7077 63.045C20.7077 63.045 29.7898 66.1262 39.3801 54.0395C39.3801 54.0395 37.5574 81.0427 26.5626 81.0427C15.5678 81.0427 20.7077 63.045 20.7077 63.045Z" fill="#333330"/>
    <path d="M99.333 42.9843C99.333 42.9843 152.259 64.5855 160.658 58.1651C169.057 51.7382 134.276 30.569 134.276 30.569C146.61 49.5211 99.333 42.9843 99.333 42.9843Z" fill="#666666"/>
    <path d="M26.5618 81.0427C37.5566 81.0427 39.3793 54.0395 39.3793 54.0395C29.7886 66.1262 20.7069 63.045 20.7069 63.045C20.7069 63.045 15.567 81.0427 26.5618 81.0427Z" fill="#666666"/>
    <path d="M191.833 71.7407C191.833 71.7407 187.205 88.2433 175.386 49.6709C175.386 49.6709 174.436 45.8511 171.313 41.0751C171.313 41.0751 189.781 54.7238 191.833 71.7407Z" fill="#333330"/>
</svg>