<svg viewBox="0 0 192 204" fill="none" xmlns="http://www.w3.org/2000/svg">
    <path d="M167.678 119.203C167.678 119.203 186.178 121.253 178.984 142.779C175.386 152.004 170.247 156.617 160.484 157.642C150.72 158.667 167.678 119.203 167.678 119.203H167.678Z" fill="#F89269"/>
    <path d="M111.665 188.394L112.488 202.395C112.488 202.395 95.0156 204.957 77.5435 201.882C77.5435 201.882 77.8527 193.513 76.5156 182.406L111.664 188.394H111.665Z" fill="#F89269"/>
    <path d="M157.454 75.4571C157.454 75.4571 167.678 94.6016 161.511 140.729C161.511 140.729 175.9 189.931 99.8456 191.469C77.2348 191.469 53.0822 184.293 37.6657 162.767C37.6657 162.767 20.5531 169.594 8.57294 153.884C3.97315 147.852 2.1297 140.085 4.11275 132.769C5.91491 126.121 10.751 119.886 23.277 124.328L36.1241 50.0119L111.151 32.5859L157.454 75.4571Z" fill="#FABA83"/>
    <path d="M161.173 87.4804C163.249 89.333 105.335 74.9658 94.4494 63.4657L107.04 79.2259C107.04 79.2259 101.901 91.5264 73.1234 68.9753C73.1234 68.9753 74.665 71.0255 74.1513 72.563C73.6374 74.1004 61.8182 75.1257 46.9156 61.7999L36.124 50.0119L111.151 32.5859L157.454 75.4571" fill="#F89269"/>
    <path opacity="0.7" d="M137.102 140.216C145.474 140.216 152.261 132.759 152.261 123.559C152.261 114.36 145.474 106.902 137.102 106.902C128.729 106.902 121.942 114.36 121.942 123.559C121.942 132.759 128.729 140.216 137.102 140.216Z" fill="white"/>
    <path opacity="0.7" d="M152.261 121.147C152.261 121.147 151.747 106.178 137.102 105.771C122.456 105.364 121.942 122.775 121.942 122.775C121.942 122.775 125.026 107.083 137.102 107.761C149.178 108.44 152.261 121.147 152.261 121.147Z" fill="#3F200E"/>
    <path d="M127.081 123.303C129.635 123.303 131.706 121.238 131.706 118.69C131.706 117.369 131.146 116.18 130.253 115.34C131.621 114.533 133.161 114.077 134.789 114.077C140.466 114.077 145.067 119.585 145.067 126.378C145.067 133.171 140.466 138.678 134.789 138.678C129.113 138.678 124.512 133.171 124.512 126.378C124.512 125.128 124.669 123.922 124.958 122.785C125.594 123.114 126.315 123.303 127.081 123.303H127.081Z" fill="#2E1E0E"/>
    <path opacity="0.7" d="M70.2974 140.729C78.9536 140.729 85.9708 132.963 85.9708 123.383C85.9708 113.803 78.9536 106.036 70.2974 106.036C61.6412 106.036 54.624 113.803 54.624 123.383C54.624 132.963 61.6412 140.729 70.2974 140.729Z" fill="white"/>
    <path opacity="0.7" d="M85.9708 120.871C85.9708 120.871 85.4395 105.283 70.2974 104.859C55.1553 104.435 54.624 122.566 54.624 122.566C54.624 122.566 57.8118 106.225 70.2974 106.931C82.7831 107.638 85.9708 120.871 85.9708 120.871Z" fill="#3F200E"/>
    <path d="M63.02 123.116C65.6611 123.116 67.8017 120.965 67.8017 118.312C67.8017 116.936 67.2225 115.699 66.2998 114.823C67.7144 113.983 69.3057 113.509 70.9894 113.509C76.8579 113.509 81.6155 119.244 81.6155 126.318C81.6155 133.392 76.8582 139.128 70.9894 139.128C65.1209 139.128 60.3633 133.392 60.3633 126.318C60.3633 125.016 60.5256 123.76 60.8249 122.577C61.4826 122.919 62.2278 123.116 63.0197 123.116H63.02Z" fill="#2E1E0E"/>
    <path d="M150.739 96.2018C148.748 94.483 140.869 88.5183 129.276 90.3882C128.832 90.4598 128.378 90.3317 128.054 90.0201C126.932 88.9413 124.945 86.2117 129.827 83.5335C134.397 81.0263 140.033 81.1465 144.474 83.8742C150.69 87.6921 154.654 94.8305 152.376 96.3588C151.874 96.696 151.196 96.5969 150.739 96.2018Z" fill="#DE8413"/>
    <path d="M54.5041 96.3607C58.3936 93.6845 67.8607 88.4508 79.9481 90.6676C81.0091 90.8622 82.0738 90.2964 82.5254 89.2642C83.5234 86.9818 83.9775 83.0539 76.61 81.3499C71.8656 80.2524 66.8804 80.6886 62.4142 82.7035C55.5393 85.8052 52.5069 91.1769 52.0682 94.769C51.8971 96.1705 53.3832 97.1321 54.5044 96.3607H54.5041Z" fill="#DE8413"/>
    <path d="M106.844 136.642C106.442 136.617 106.366 136.057 106.751 135.941C109.775 135.028 115.126 134.538 118.084 138.368C121.329 142.568 119.177 148.66 114.176 150.459C110.235 151.876 105.399 151.895 103.122 150.923C101.904 150.403 102.074 148.66 103.371 148.393C106.556 147.739 113.788 147.619 114.362 143.942C115.263 138.159 110.29 136.853 106.844 136.642Z" fill="#F89269"/>
    <path d="M106.794 174.552C99.8947 174.552 91.9351 172.39 84.0306 165.535C82.5814 164.278 82.428 162.087 83.6887 160.641C84.9483 159.196 87.1453 159.043 88.5955 160.3C105.624 175.07 122.436 163.164 123.144 162.651C124.691 161.525 126.867 161.858 128 163.398C129.134 164.939 128.809 167.101 127.268 168.237C127.132 168.337 118.489 174.552 106.793 174.552L106.794 174.552Z" fill="#F89269"/>
    <path d="M34.4312 140.344C34.4312 140.344 26.1429 120.868 11.9714 123.303C11.9714 123.303 -16.9571 54.7526 20.5562 40.9143C20.5562 40.9143 0.000976562 41.9393 0.000976562 37.3266C0.000976562 37.3266 10.6715 25.0261 23.5791 37.3266C23.5791 37.3266 19.0146 15.8005 37.5143 4.52495C46.2504 0.937258 39.5698 24.0008 39.5698 24.0008C39.5698 24.0008 77.426 -17.7824 140.632 8.91179C141.681 9.35489 142.704 9.85539 143.712 10.3859C149.126 13.2356 169.532 23.3445 184.998 22.4631C196.818 21.9506 179.86 41.4265 170.61 40.4015C170.61 40.4015 193.63 57.0107 191.853 75.9211C191.727 77.269 191.208 78.5699 190.297 79.5737C188.717 81.3155 185.705 82.5568 180.888 76.7909C180.888 76.7909 178.977 118.744 162.025 137.141C162.025 137.141 166.832 103.638 158.7 82.5266C158.7 82.5266 113.055 74.2281 101.236 60.3899C101.236 60.3899 106.889 70.6405 108.944 78.8408C108.944 78.8408 114.597 96.2668 72.4585 63.4651C72.4585 63.4651 74.9977 67.6532 75.2697 70.1718C75.2697 70.1718 76.0556 83.4535 49.8474 60.3899C49.8474 60.3899 48.3059 86.0162 37.0004 97.2917C31.3477 103.442 39.5698 149.569 34.4309 140.344L34.4312 140.344Z" fill="#D36909"/>
    <path d="M20.553 40.9149C-3.79403 51.0135 2.96905 80.0499 5.21679 87.6432C5.4295 88.3625 6.41488 88.4527 6.75615 87.7845C9.07479 83.2749 11.458 76.1506 11.458 76.1506C11.458 91.0158 16.5979 99.213 29.4412 94.6003C50.5098 79.2278 45.8851 49.4975 45.8851 49.4975C65.9295 74.6154 74.6636 67.9472 74.6636 67.9472C72.6412 63.9129 67.1276 51.4374 66.9603 51.0457C96.2477 83.3263 107.043 75.6754 107.552 74.6154C105.69 67.1827 94.5407 50.911 92.4669 47.9238C103.275 62.8211 153.379 76.6839 162.023 78.2C173.572 77.9751 176.413 76.6647 177.958 68.9749C181.037 49.4975 151.75 32.0756 151.75 32.0756C179.498 43.8637 197.481 22.8506 184.998 22.4653C169.534 23.3455 149.128 13.234 143.712 10.388C142.707 9.85474 141.682 9.35392 140.633 8.91051C77.4272 -17.7811 39.567 24.0005 39.567 24.0005C39.567 24.0005 45.3768 3.37319 36.6364 6.95772C18.3695 18.097 24.1539 38.2232 24.2954 38.731C11.3875 26.4418 0 37.3241 0 37.3241C0 41.943 20.5533 40.9152 20.5533 40.9152L20.553 40.9149ZM99.333 42.8355C99.333 42.8355 146.61 49.3496 134.276 30.4628C134.276 30.4628 169.057 51.5594 160.658 57.964C152.259 64.3623 99.333 42.8355 99.333 42.8355ZM20.7077 62.8271C20.7077 62.8271 29.7898 65.8979 39.3801 53.8528C39.3801 53.8528 37.5574 80.763 26.5626 80.763C15.5678 80.763 20.7077 62.8271 20.7077 62.8271Z" fill="#FFB91D"/>
    <path d="M191.833 71.4929C191.833 71.4929 187.205 87.9384 175.386 49.4991C175.386 49.4991 174.436 45.6925 171.313 40.9329C171.313 40.9329 189.781 54.5346 191.833 71.4929Z" fill="#FFB915"/>
    <path d="M99.333 42.8356C99.333 42.8356 152.259 64.3623 160.658 57.964C169.057 51.5594 134.276 30.4628 134.276 30.4628C146.61 49.3493 99.333 42.8356 99.333 42.8356Z" fill="#FFDD5B"/>
    <path d="M26.5628 80.763C37.5576 80.763 39.3802 53.8528 39.3802 53.8528C29.7896 65.8979 20.7079 62.8271 20.7079 62.8271C20.7079 62.8271 15.568 80.763 26.5628 80.763Z" fill="#FFDD5B"/>
</svg>