<?xml version="1.0" encoding="UTF-8"?>
<svg id="headboy1" xmlns="http://www.w3.org/2000/svg" viewBox="0 0 1120.212 1303.217">
  <g id="lightboy2">
    <path d="M658.425,715.439s58.707,6.501,35.877,74.756c-11.415,29.252-27.723,43.879-58.707,47.129-30.984,3.25,22.831-121.885,22.831-121.885Z" style="fill: #f89269;"/>
    <path d="M480.672,934.833l2.612,44.395s-55.446,8.126-110.892-1.625c0,0,.981-26.537-3.262-61.755l111.541,18.985Z" style="fill: #f89269;"/>
    <path d="M625.979,576.729s32.445,60.704,12.876,206.966c0,0,45.661,156.013-195.691,160.889-71.753,0-148.399-22.752-197.322-91.008,0,0-54.305,21.647-92.323-28.167-14.597-19.127-20.447-43.755-14.154-66.952,5.719-21.081,21.066-40.851,60.816-26.766l40.769-235.645,238.091-55.255,146.938,135.938Z" style="fill: #faba83;"/>
    <path d="M637.782,614.853c6.589,5.874-177.196-39.682-211.74-76.147l39.954,49.973s-16.308,39.003-107.63-32.503c0,0,4.892,6.501,3.262,11.376-1.631,4.875-39.138,8.126-86.43-34.128l-34.246-37.378,238.091-55.255,146.938,135.938" style="fill: #f89269;"/>
    <ellipse cx="561.395" cy="729.253" rx="48.107" ry="52.817" style="fill: #fff; opacity: .7;"/>
    <path d="M609.502,721.605s-1.631-47.464-48.107-48.754c-46.477-1.291-48.107,53.916-48.107,53.916,0,0,9.785-49.758,48.107-47.607,38.323,2.151,48.107,42.445,48.107,42.445Z" style="fill: #3f200e; opacity: .7;"/>
    <path d="M529.595,728.44c8.106,0,14.677-6.548,14.677-14.626,0-4.19-1.777-7.958-4.61-10.624,4.342-2.559,9.227-4.002,14.395-4.002,18.013,0,32.615,17.462,32.615,39.003,0,21.541-14.602,39.003-32.615,39.003s-32.615-17.462-32.615-39.003c0-3.964.498-7.787,1.417-11.392,2.019,1.042,4.306,1.641,6.737,1.641Z" style="fill: #2e1e0e;"/>
    <ellipse cx="349.396" cy="728.693" rx="49.738" ry="55.002" style="fill: #fff; opacity: .7;"/>
    <path d="M399.134,720.729s-1.686-49.427-49.738-50.771c-48.052-1.344-49.738,56.146-49.738,56.146,0,0,10.116-51.816,49.738-49.576,39.622,2.24,49.738,44.2,49.738,44.2Z" style="fill: #3f200e; opacity: .7;"/>
    <path d="M326.303,727.847c8.381,0,15.174-6.819,15.174-15.231,0-4.363-1.838-8.287-4.766-11.064,4.489-2.665,9.539-4.168,14.882-4.168,18.623,0,33.721,18.185,33.721,40.617,0,22.432-15.097,40.617-33.721,40.617-18.623,0-33.721-18.185-33.721-40.617,0-4.128.515-8.11,1.465-11.863,2.087,1.085,4.452,1.709,6.965,1.709Z" style="fill: #2e1e0e;"/>
    <path d="M604.67,642.507c-6.318-5.45-31.321-24.363-68.11-18.434-1.409.227-2.851-.179-3.879-1.167-3.559-3.421-9.864-12.076,5.627-20.568,14.502-7.95,32.387-7.569,46.48,1.08,19.728,12.106,32.305,34.741,25.077,39.587-1.594,1.069-3.743.755-5.195-.498Z" style="fill: #de8413;"/>
    <path d="M299.279,643.011c12.343-8.486,42.386-25.081,80.744-18.052,3.367.617,6.746-1.177,8.179-4.45,3.167-7.237,4.608-19.692-18.772-25.095-15.056-3.48-30.876-2.097-45.049,4.292-21.817,9.835-31.44,26.868-32.832,38.258-.543,4.444,4.173,7.493,7.731,5.047Z" style="fill: #de8413;"/>
    <path d="M465.372,770.736c-1.273-.078-1.514-1.855-.294-2.223,9.598-2.894,26.579-4.447,35.966,7.695,10.297,13.319,3.468,32.637-12.403,38.34-12.507,4.494-27.854,4.552-35.08,1.47-3.864-1.648-3.324-7.175.792-8.02,10.106-2.075,33.057-2.456,34.877-14.115,2.862-18.337-12.922-22.478-23.858-23.147Z" style="fill: #f89269;"/>
    <path d="M465.214,890.944c-21.893,0-47.152-6.855-72.236-28.592-4.599-3.985-5.086-10.933-1.085-15.518,3.997-4.583,10.969-5.068,15.571-1.081,54.04,46.832,107.391,9.082,109.635,7.453,4.911-3.57,11.815-2.513,15.413,2.37,3.596,4.886,2.567,11.74-2.323,15.342-.433.319-27.862,20.025-64.976,20.025Z" style="fill: #f89269;"/>
    <path d="M235.579,782.476s-26.302-61.755-71.274-54.036c0,0-91.802-217.362,27.243-261.241,0,0-65.23,3.25-65.23-11.376,0,0,33.862-39.003,74.823,0,0,0-14.485-68.256,44.222-104.009,27.723-11.376,6.523,61.755,6.523,61.755,0,0,120.133-132.488,320.711-47.845,3.33,1.405,6.577,2.992,9.775,4.674,17.18,9.036,81.937,41.09,131.018,38.295,37.507-1.625-16.308,60.13-45.661,56.88,0,0,73.053,52.665,67.414,112.627-.402,4.274-2.048,8.399-4.938,11.582-5.016,5.523-14.572,9.459-29.86-8.824,0,0-6.064,133.028-59.858,191.36,0,0,15.252-106.231-10.552-173.173,0,0-144.85-26.313-182.357-70.192,0,0,17.938,32.503,24.461,58.505,0,0,17.938,55.255-115.784-48.754,0,0,8.058,13.28,8.921,21.266,0,0,2.494,42.114-80.675-31.017,0,0-4.892,81.257-40.769,117.01-17.938,19.502,8.154,165.764-8.154,136.512Z" style="fill: #d36909;"/>
    <path d="M191.538,467.201c-77.263,32.021-55.801,124.091-48.668,148.168.675,2.281,3.802,2.567,4.885.448,7.358-14.299,14.921-36.889,14.921-36.889,0,47.135,16.311,73.127,57.068,58.501,66.859-48.744,52.183-143.014,52.183-143.014,63.609,79.645,91.326,58.501,91.326,58.501-6.418-12.792-23.915-52.35-24.446-53.592,92.941,102.357,127.198,78.097,128.813,74.736-5.907-23.568-41.289-75.163-47.87-84.635,34.298,47.237,193.3,91.194,220.731,96.001,36.649-.713,45.663-4.868,50.568-29.251,9.77-61.76-83.17-117.002-83.17-117.002,88.055,37.378,145.124-29.251,105.511-30.473-49.076,2.791-113.83-29.271-131.02-38.295-3.189-1.691-6.439-3.279-9.77-4.685-200.577-84.635-320.723,47.848-320.723,47.848,0,0,18.437-65.406-9.3-54.04-57.968,35.321-39.612,99.138-39.163,100.748-40.962-38.967-77.099-4.461-77.099-4.461,0,14.646,65.224,11.387,65.224,11.387ZM441.539,473.291s150.029,20.655,110.887-39.232c0,0,110.376,66.894,83.722,87.202-26.654,20.288-194.609-47.97-194.609-47.97ZM192.029,536.681s28.821,9.737,59.255-28.456c0,0-5.784,85.328-40.675,85.328-34.891,0-18.58-56.872-18.58-56.872Z" style="fill: #ffb91d;"/>
    <path d="M735.081,564.159s-14.688,52.146-52.195-69.739c0,0-3.015-12.07-12.923-27.162,0,0,58.606,43.129,65.118,96.901Z" style="fill: #ffb915;"/>
    <path d="M441.539,473.291s167.955,68.258,194.609,47.97c26.654-20.308-83.722-87.202-83.722-87.202,39.143,59.886-110.887,39.232-110.887,39.232Z" style="fill: #ffdd5b;"/>
    <path d="M210.609,593.553c34.891,0,40.675-85.328,40.675-85.328-30.435,38.193-59.255,28.456-59.255,28.456,0,0-16.311,56.872,18.58,56.872Z" style="fill: #ffdd5b;"/>
  </g>
</svg>