<?xml version="1.0" encoding="UTF-8"?>
<svg id="headboy2" xmlns="http://www.w3.org/2000/svg" viewBox="0 0 1120.212 1303.217">
  <path d="M658.425,715.631s58.707,6.523,35.877,75.015c-11.415,29.354-27.723,44.03-58.707,47.292-30.984,3.262,22.831-122.307,22.831-122.307Z" style="fill: #f89269;"/>
  <path d="M480.672,935.783l2.612,44.549s-55.446,8.154-110.892-1.631c0,0,.981-26.629-3.262-61.969l111.541,19.051Z" style="fill: #f89269;"/>
  <path d="M625.979,576.441s32.445,60.914,12.876,207.682c0,0,45.661,156.553-195.691,161.445-71.753,0-148.399-22.831-197.322-91.322,0,0-54.305,21.722-92.323-28.264-14.597-19.193-20.447-43.906-14.154-67.184,5.719-21.154,21.066-40.992,60.816-26.859l40.769-236.46,238.091-55.446,146.938,136.408Z" style="fill: #faba83;"/>
  <path d="M637.782,614.697c6.589,5.894-177.196-39.819-211.74-76.411l39.954,50.146s-16.308,39.138-107.63-32.615c0,0,4.892,6.523,3.262,11.415-1.631,4.892-39.138,8.154-86.43-34.246l-34.246-37.507,238.091-55.446,146.938,136.408" style="fill: #f89269;"/>
  <ellipse cx="561.395" cy="729.493" rx="48.107" ry="53" style="fill: #fff; opacity: .7;"/>
  <path d="M609.502,721.818s-1.631-47.628-48.107-48.923c-46.477-1.295-48.107,54.103-48.107,54.103,0,0,9.785-49.93,48.107-47.772,38.323,2.158,48.107,42.592,48.107,42.592Z" style="fill: #3f200e; opacity: .7;"/>
  <path d="M529.595,728.677c8.106,0,14.677-6.571,14.677-14.677,0-4.204-1.777-7.985-4.61-10.661,4.342-2.568,9.227-4.016,14.395-4.016,18.013,0,32.615,17.523,32.615,39.138,0,21.615-14.602,39.138-32.615,39.138s-32.615-17.523-32.615-39.138c0-3.977.498-7.814,1.417-11.431,2.019,1.046,4.306,1.646,6.737,1.646Z" style="fill: #2e1e0e;"/>
  <ellipse cx="349.396" cy="728.931" rx="49.738" ry="55.192" style="fill: #fff; opacity: .7;"/>
  <path d="M399.134,720.94s-1.686-49.598-49.738-50.946c-48.052-1.349-49.738,56.341-49.738,56.341,0,0,10.116-51.995,49.738-49.748,39.622,2.248,49.738,44.353,49.738,44.353Z" style="fill: #3f200e; opacity: .7;"/>
  <path d="M326.303,728.082c8.381,0,15.174-6.843,15.174-15.284,0-4.378-1.838-8.315-4.766-11.102,4.489-2.674,9.539-4.182,14.882-4.182,18.623,0,33.721,18.248,33.721,40.757,0,22.509-15.097,40.757-33.721,40.757-18.623,0-33.721-18.248-33.721-40.757,0-4.142.515-8.138,1.465-11.904,2.087,1.089,4.452,1.715,6.965,1.715Z" style="fill: #2e1e0e;"/>
  <path d="M604.67,642.447c-6.318-5.469-31.321-24.447-68.11-18.498-1.409.228-2.851-.18-3.879-1.171-3.559-3.433-9.864-12.117,5.627-20.639,14.502-7.978,32.387-7.595,46.48,1.084,19.728,12.148,32.305,34.861,25.077,39.724-1.594,1.072-3.743.758-5.195-.5Z" style="fill: #333330;"/>
  <path d="M299.279,642.953c12.343-8.516,42.386-25.167,80.744-18.114,3.367.619,6.746-1.181,8.179-4.465,3.167-7.262,4.608-19.76-18.772-25.182-15.056-3.492-30.876-2.104-45.049,4.307-21.817,9.869-31.44,26.961-32.832,38.39-.543,4.459,4.173,7.519,7.731,5.064Z" style="fill: #333330;"/>
  <path d="M465.372,771.119c-1.273-.078-1.514-1.861-.294-2.23,9.598-2.904,26.579-4.462,35.966,7.722,10.297,13.365,3.468,32.75-12.403,38.472-12.507,4.509-27.854,4.568-35.08,1.475-3.864-1.654-3.324-7.2.792-8.048,10.106-2.082,33.057-2.464,34.877-14.164,2.862-18.4-12.922-22.556-23.858-23.227Z" style="fill: #f89269;"/>
  <path d="M465.272,889.657c-21.486,0-46.288-6.755-70.926-28.178-3.73-3.243-4.125-8.898-.88-12.63,3.245-3.729,8.895-4.126,12.63-.88,55.643,48.388,109.929,9.292,112.212,7.604,3.976-2.94,9.582-2.097,12.521,1.878,2.939,3.976,2.098,9.582-1.878,12.521-.424.313-27.294,19.685-63.678,19.685Z" style="fill: #f89269;"/>
  <path d="M235.579,782.9s-26.302-61.968-71.274-54.223c0,0-91.802-218.114,27.243-262.144,0,0-65.23,3.262-65.23-11.415,0,0,33.862-39.138,74.823,0,0,0-14.485-68.492,44.222-104.368,27.723-11.415,6.523,61.969,6.523,61.969,0,0,120.133-132.947,320.711-48.01,3.33,1.41,6.577,3.002,9.775,4.69,17.18,9.067,81.937,41.232,131.018,38.428,37.507-1.631-16.308,60.338-45.661,57.077,0,0,73.053,52.847,67.414,113.017-.402,4.288-2.048,8.428-4.938,11.622-5.016,5.542-14.572,9.492-29.86-8.855,0,0-6.064,133.488-59.858,192.022,0,0,15.252-106.599-10.552-173.772,0,0-144.85-26.404-182.357-70.434,0,0,17.938,32.615,24.461,58.707,0,0,17.938,55.446-115.784-48.923,0,0,8.058,13.326,8.921,21.34,0,0,2.494,42.26-80.675-31.124,0,0-4.892,81.538-40.769,117.415-17.938,19.569,8.154,166.337-8.154,136.984Z"/>
  <path d="M191.538,466.534c-77.263,32.132-55.801,124.52-48.668,148.68.675,2.289,3.802,2.575,4.885.45,7.358-14.349,14.921-37.017,14.921-37.017,0,47.298,16.311,73.379,57.068,58.704,66.859-48.913,52.183-143.509,52.183-143.509,63.609,79.92,91.326,58.703,91.326,58.703-6.418-12.836-23.915-52.531-24.446-53.778,92.941,102.711,127.198,78.367,128.813,74.994-5.907-23.649-41.289-75.423-47.87-84.928,34.298,47.4,193.3,91.51,220.731,96.333,36.649-.715,45.663-4.885,50.568-29.352,9.77-61.974-83.17-117.407-83.17-117.407,88.055,37.507,145.124-29.352,105.511-30.578-49.076,2.8-113.83-29.372-131.02-38.427-3.189-1.697-6.439-3.291-9.77-4.701-200.577-84.928-320.723,48.013-320.723,48.013,0,0,18.437-65.633-9.3-54.227-57.968,35.443-39.612,99.481-39.163,101.096-40.962-39.102-77.099-4.476-77.099-4.476,0,14.696,65.224,11.426,65.224,11.426ZM441.539,472.646s150.029,20.726,110.887-39.367c0,0,110.376,67.125,83.722,87.503-26.654,20.358-194.609-48.136-194.609-48.136ZM192.029,536.255s28.821,9.77,59.255-28.555c0,0-5.784,85.623-40.675,85.623s-18.58-57.068-18.58-57.068Z" style="fill: #333330;"/>
  <path d="M441.539,472.646s167.955,68.494,194.609,48.136c26.654-20.379-83.722-87.503-83.722-87.503,39.143,60.094-110.887,39.367-110.887,39.367Z" style="fill: #666;"/>
  <path d="M210.609,593.323c34.891,0,40.675-85.623,40.675-85.623-30.435,38.325-59.255,28.555-59.255,28.555,0,0-16.311,57.068,18.58,57.068Z" style="fill: #666;"/>
  <path d="M735.081,563.828s-14.688,52.327-52.195-69.98c0,0-3.015-12.112-12.923-27.256,0,0,58.606,43.278,65.118,97.236Z" style="fill: #333330;"/>
</svg>