<?xml version="1.0" encoding="UTF-8"?>
<svg id="headgirl2" xmlns="http://www.w3.org/2000/svg" viewBox="0 0 1120.212 1303.217">
  <path d="M480.646,425.788s.558-200.331-214.448-117.059c0,0-123.543,43.001-161.084,241.626,0,0-35.493,85.32-105.114,17.747,0,0,6.143,126.956,118.765,96.923,0,0-23.207,38.223-62.795,34.128,0,0,78.494,73.716,161.766-20.477,83.272-94.193,262.91-252.888,262.91-252.888Z"/>
  <path d="M480.648,425.792s-41.541,36.696-93.93,85.257l-64.283-54.536s-105.273-27.587-150.41,114.846c-.522,1.595-1.015,3.191-1.509,4.815-1.363,4.641-2.843,9.254-4.699,13.721-34.52,82.211-132.135,63.239-154.239,26.514C1.162,591.867.002,568.108.002,568.108c40.612,39.411,69.606,26.801,86.717,9.451,10.761-10.912,17.741-24.995,20.96-39.979,40.317-187.703,158.507-228.84,158.507-228.84,215.013-83.284,214.462,117.05,214.462,117.05Z" style="fill: #333330;"/>
  <path d="M721.767,764.728s57.07,6.341,34.876,72.923c-11.097,28.535-26.95,42.803-57.07,45.973-30.12,3.171,22.194-118.896,22.194-118.896Z" style="fill: #f89269;"/>
  <path d="M550.495,976.728l3.024,51.575s-53.9,7.926-107.799-1.585c0,0,.954-25.887-3.171-60.241l107.946,10.251Z" style="fill: #f89269;"/>
  <path d="M686.713,626.35s31.541,59.215,12.517,201.891c0,0,44.388,152.187-190.234,156.943-69.753,0-144.261-22.194-191.819-88.776,0,0-52.791,21.116-89.749-27.476-14.19-18.657-19.877-42.682-13.76-65.31,5.559-20.564,20.479-39.849,59.12-26.11l39.632-229.866,231.452-53.9,142.841,132.604Z" style="fill: #faba83;"/>
  <ellipse cx="423.364" cy="783.913" rx="48.351" ry="53.653" style="fill: #fff; opacity: .7;"/>
  <path d="M471.716,776.144s-1.639-48.215-48.351-49.526c-23.277-.653-35.362,12.945-41.629,26.753-.672,1.481-.991,4.601-8.271,2.125.466,4.226,4.597,7.088,4.597,7.088-.61,1.921-5.148,7.913-13.016,1.701-1.193,6.25,9.968,17.103,9.968,17.103,0,0,9.834-50.545,48.351-48.36,38.517,2.185,48.351,43.116,48.351,43.116Z" style="fill: #3f200e; opacity: .7;"/>
  <path d="M400.915,783.087c8.147,0,14.751-6.652,14.751-14.858,0-4.256-1.786-8.084-4.633-10.792,4.364-2.599,9.273-4.065,14.467-4.065,18.104,0,32.78,17.739,32.78,39.621,0,21.882-14.676,39.621-32.78,39.621-18.104,0-32.78-17.739-32.78-39.621,0-4.026.501-7.911,1.424-11.572,2.029,1.059,4.328,1.667,6.771,1.667Z" style="fill: #2e1e0e;"/>
  <ellipse cx="629.691" cy="783.913" rx="48.351" ry="53.653" style="fill: #fff; opacity: .7;"/>
  <path d="M581.339,776.144s1.639-48.215,48.351-49.526c23.277-.653,35.362,12.945,41.629,26.753.672,1.481.991,4.601,8.271,2.125-.466,4.226-4.597,7.088-4.597,7.088.61,1.921,5.148,7.913,13.016,1.701,1.193,6.25-9.968,17.103-9.968,17.103,0,0-9.834-50.545-48.351-48.36-38.517,2.185-48.351,43.116-48.351,43.116Z" style="fill: #3f200e; opacity: .7;"/>
  <path d="M602.969,783.087c8.147,0,14.751-6.652,14.751-14.858,0-4.256-1.786-8.084-4.633-10.792,4.364-2.599,9.273-4.065,14.467-4.065,18.104,0,32.78,17.739,32.78,39.621,0,21.882-14.676,39.621-32.78,39.621s-32.78-17.739-32.78-39.621c0-4.026.501-7.911,1.424-11.572,2.029,1.059,4.328,1.667,6.771,1.667Z" style="fill: #2e1e0e;"/>
  <path d="M663.756,715.17c-6.12-4.973-30.343-22.231-65.984-16.821-1.365.207-2.762-.164-3.758-1.065-3.448-3.122-9.556-11.019,5.451-18.768,14.049-7.254,31.376-6.906,45.029.985,19.112,11.047,31.296,31.7,24.294,36.122-1.544.975-3.626.689-5.033-.454Z" style="fill: #333330;"/>
  <path d="M378.175,718.531c11.958-7.743,41.063-22.885,78.223-16.472,3.262.563,6.536-1.074,7.923-4.06,3.068-6.603,4.464-17.968-18.186-22.899-14.586-3.175-29.912-1.914-43.643,3.916-21.136,8.974-30.459,24.516-31.807,34.909-.526,4.055,4.043,6.838,7.49,4.605Z" style="fill: #333330;"/>
  <path d="M538.283,828.53c-1.025-.063-1.22-1.499-.237-1.797,7.732-2.339,21.411-3.594,28.973,6.221,8.295,10.766,2.794,26.382-9.992,30.992-10.075,3.633-22.438,3.679-28.26,1.188-3.113-1.332-2.678-5.8.638-6.483,8.141-1.677,26.63-1.985,28.096-11.41,2.306-14.823-10.409-18.17-19.22-18.711Z" style="fill: #f89269;"/>
  <path d="M543.191,934.503c-15.879,1.294-34.618-2.217-54.121-16.607-2.953-2.179-3.586-6.345-1.413-9.306,2.17-2.959,6.325-3.594,9.281-1.413,43.813,32.328,76.502,1.868,78.098.487,2.768-2.397,6.958-2.101,9.358.67,2.4,2.77,2.119,6.958-.637,9.371-.296.258-13.674,14.607-40.566,16.798Z" style="fill: #f89269;"/>
  <path d="M606.65,586.499s-58.7,80.542-105.114,73.716c0,0-11.603,6.143,16.381-45.731,0,0-86.685,83.272-199.307,92.828,0,0,2.73,95.558-9.556,107.162,0,0-23.387-28.192-36.266-36.962,0,0-25.25-11.457-44.233,1.744-4.992-8.271-94.237-140.733,67.53-285.51,0,0,112.907-90.173,274.872-37.615,0,0,34.327,9.556,47.295,30.033,0,0,90.098,2.048,121.495,104.431,0,0,19.685,98.519-40.519,237.646,9.184-74.249,1.959-112.025,1.959-112.025-35.215-30.406-78.062-56.271-94.539-129.717Z"/>
  <path d="M343.498,487.218s96.273-31.739,146.425-24.572l-9.276-36.858s-77.93-75.764-158.219,30.715c0,0,10.832,23.548,21.071,30.715Z" style="fill: #ffb91d;"/>
  <path d="M740.512,683.473c-.004.029-.012.091-.029.116-26.512,39.282-133.202-36.639-127.328-103.17,1.007-11.408,3.809-22.593,4.476-34.026,1.266-21.702,1.508-41.324,1.508-41.324l-11.726,55.941s-19.139,80.864-98.333,88.378c0,0,23.091-55.668,38.03-92.074-21.583,28.893-46.588,66.952-101.298,96.628-39.075,21.234-93.292,38.205-172.196,44.499,0,0,.406-33.186,11.284-73.392,11.226-41.425,33.563-90.275,78.063-117.833-64.603,35.324-103.423,116.548-107.177,166.103,0,0-40.044,98.782-52.297,43.104-13.144-59.725-.195-143.833,92.609-222.667,0,0,112.902-90.188,274.858-37.624,0,0,34.317,9.544,47.284,30.024,0,0,90.101,2.06,121.518,104.431,0,0,9.447,26.149.754,92.886Z" style="fill: #333330;"/>
  <path d="M484.884,562.572s-46.432,69.279-167.224,90.187c-2.097-48.739,50.894-124.077,50.894-124.077-34.278,52.625,116.33,33.89,116.33,33.89Z" style="fill: #666;"/>
  <path d="M707.595,658.87c-33.234,6.778-65.594-74.06-65.594-74.06,39.8,51.596,65.96,14.895,65.96,14.895,0,0,20.927,39.698-.366,59.165Z" style="fill: #666;"/>
  <path d="M317.6,393.401s31.045-77.812,100.736-37.541c0,0-54.535-83.272-186.269-.683,0,0,81.65-31.398,85.533,38.223Z" style="fill: #666;"/>
</svg>