<svg viewBox="0 0 241 235" fill="none" xmlns="http://www.w3.org/2000/svg">
    <path d="M151.461 43.3069C151.461 43.3069 151.636 -19.8722 83.884 6.38962C83.884 6.38962 44.9533 19.951 33.1234 82.592C33.1234 82.592 21.9389 109.5 0 88.189C0 88.189 1.93577 128.228 37.4251 118.756C37.4251 118.756 30.1121 130.81 17.6372 129.519C17.6372 129.519 42.3721 152.767 68.6127 123.061C94.8533 93.3551 151.461 43.3069 151.461 43.3069Z" fill="black"/>
    <path d="M151.462 43.3082C151.462 43.3082 138.371 54.8812 121.862 70.196L101.606 52.9968C101.606 52.9968 68.4322 44.2966 54.2087 89.2162C54.0442 89.7192 53.8888 90.2225 53.7332 90.7347C53.3037 92.1984 52.8373 93.6532 52.2524 95.062C41.3745 120.989 10.6142 115.006 3.64879 103.424C0.366514 95.6839 0.000976562 88.1909 0.000976562 88.1909C12.7986 100.62 21.9351 96.6432 27.3271 91.1715C30.7181 87.7302 32.9177 83.2887 33.932 78.5632C46.6367 19.3667 83.8806 6.39314 83.8806 6.39314C151.635 -19.8724 151.462 43.3076 151.462 43.3076V43.3082Z" fill="#333330"/>
    <path d="M227.442 150.2C227.442 150.2 245.426 152.199 238.432 173.198C234.935 182.197 229.94 186.696 220.448 187.696C210.957 188.696 227.442 150.2 227.442 150.2Z" fill="#F89269"/>
    <path d="M173.471 217.059L174.424 233.324C174.424 233.324 157.439 235.824 140.454 232.824C140.454 232.824 140.755 224.66 139.455 213.826L173.471 217.059Z" fill="#F89269"/>
    <path d="M216.396 106.559C216.396 106.559 226.335 125.234 220.341 170.23C220.341 170.23 234.328 218.226 160.394 219.726C138.414 219.726 114.935 212.726 99.9485 191.728C99.9485 191.728 83.313 198.387 71.6669 183.063C67.1953 177.179 65.4032 169.602 67.3308 162.466C69.0826 155.98 73.7842 149.898 85.9607 154.231L98.4495 81.7377L171.384 64.7391L216.396 106.559Z" fill="#FABA83"/>
    <path opacity="0.7" d="M133.41 173.171C141.825 173.171 148.646 165.595 148.646 156.25C148.646 146.905 141.825 139.329 133.41 139.329C124.995 139.329 118.174 146.905 118.174 156.25C118.174 165.595 124.995 173.171 133.41 173.171Z" fill="white"/>
    <path opacity="0.7" d="M148.647 153.8C148.647 153.8 148.13 138.594 133.41 138.181C126.075 137.975 122.267 142.263 120.292 146.618C120.081 147.085 119.98 148.069 117.686 147.288C117.833 148.621 119.135 149.523 119.135 149.523C118.942 150.129 117.512 152.019 115.033 150.06C114.657 152.031 118.174 155.454 118.174 155.454C118.174 155.454 121.273 139.513 133.41 140.202C145.548 140.891 148.647 153.8 148.647 153.8Z" fill="#3F200E"/>
    <path d="M126.336 155.99C128.904 155.99 130.985 153.892 130.985 151.304C130.985 149.961 130.422 148.754 129.525 147.9C130.9 147.081 132.447 146.618 134.084 146.618C139.788 146.618 144.413 152.213 144.413 159.114C144.413 166.015 139.788 171.609 134.084 171.609C128.379 171.609 123.754 166.015 123.754 159.114C123.754 157.844 123.912 156.619 124.203 155.464C124.842 155.798 125.566 155.99 126.336 155.99V155.99Z" fill="#2E1E0E"/>
    <path opacity="0.7" d="M198.428 173.171C206.842 173.171 213.664 165.595 213.664 156.25C213.664 146.905 206.842 139.329 198.428 139.329C190.013 139.329 183.191 146.905 183.191 156.25C183.191 165.595 190.013 173.171 198.428 173.171Z" fill="white"/>
    <path opacity="0.7" d="M183.191 153.8C183.191 153.8 183.708 138.594 198.428 138.181C205.763 137.975 209.571 142.263 211.546 146.618C211.758 147.085 211.858 148.069 214.152 147.288C214.005 148.621 212.704 149.523 212.704 149.523C212.896 150.129 214.326 152.019 216.805 150.06C217.181 152.031 213.664 155.454 213.664 155.454C213.664 155.454 210.565 139.513 198.428 140.202C186.29 140.891 183.191 153.8 183.191 153.8Z" fill="#3F200E"/>
    <path d="M190.007 155.99C192.574 155.99 194.656 153.892 194.656 151.304C194.656 149.961 194.093 148.754 193.196 147.9C194.571 147.081 196.118 146.618 197.754 146.618C203.459 146.618 208.084 152.213 208.084 159.114C208.084 166.015 203.459 171.609 197.754 171.609C192.049 171.609 187.425 166.015 187.425 159.114C187.425 157.844 187.583 156.619 187.874 155.464C188.513 155.798 189.237 155.99 190.007 155.99V155.99Z" fill="#2E1E0E"/>
    <path d="M209.162 134.57C207.233 133.002 199.6 127.559 188.369 129.265C187.939 129.331 187.499 129.214 187.185 128.93C186.098 127.945 184.174 125.454 188.903 123.011C193.33 120.723 198.79 120.833 203.092 123.321C209.115 126.805 212.954 133.319 210.748 134.713C210.261 135.021 209.605 134.93 209.162 134.57L209.162 134.57Z" fill="#333330"/>
    <path d="M119.17 135.63C122.938 133.188 132.11 128.413 143.82 130.435C144.848 130.613 145.879 130.097 146.316 129.155C147.283 127.073 147.723 123.488 140.586 121.933C135.989 120.932 131.16 121.33 126.833 123.168C120.173 125.998 117.235 130.9 116.81 134.178C116.644 135.457 118.084 136.335 119.17 135.63Z" fill="#333330"/>
    <path d="M169.623 170.321C169.3 170.301 169.239 169.848 169.548 169.754C171.985 169.017 176.295 168.621 178.678 171.716C181.292 175.112 179.559 180.036 175.53 181.49C172.355 182.636 168.459 182.651 166.624 181.865C165.643 181.445 165.781 180.036 166.825 179.82C169.391 179.292 175.217 179.194 175.679 176.222C176.406 171.547 172.399 170.492 169.622 170.321H169.623Z" fill="#F89269"/>
    <path d="M171.17 203.742C166.166 204.15 160.261 203.043 154.115 198.505C153.184 197.817 152.985 196.504 153.67 195.57C154.354 194.637 155.663 194.436 156.594 195.124C170.401 205.32 180.702 195.713 181.205 195.278C182.077 194.522 183.397 194.615 184.153 195.489C184.91 196.363 184.821 197.683 183.953 198.444C183.859 198.526 179.644 203.051 171.17 203.742Z" fill="#F89269"/>
    <path d="M191.167 93.9909C191.167 93.9909 172.669 119.392 158.044 117.239C158.044 117.239 154.387 119.176 163.205 102.817C163.205 102.817 135.889 129.078 100.4 132.092C100.4 132.092 101.26 162.229 97.3888 165.888C97.3888 165.888 90.0191 156.997 85.9607 154.231C85.9607 154.231 78.0039 150.618 72.022 154.781C70.449 152.173 42.3262 110.398 93.302 64.739C93.302 64.739 128.881 36.3009 179.919 52.8763C179.919 52.8763 190.736 55.89 194.823 62.3479C194.823 62.3479 223.215 62.9938 233.108 95.2826C233.108 95.2826 239.311 126.353 220.34 170.23C223.234 146.814 220.957 134.9 220.957 134.9C209.86 125.311 196.359 117.154 191.166 93.9909H191.167Z" fill="black"/>
    <path d="M108.243 62.6803C108.243 62.6803 138.581 52.6706 154.384 54.9309L151.461 43.3069C151.461 43.3069 126.904 19.4129 101.604 52.9936C101.604 52.9936 105.017 60.42 108.243 62.6803H108.243Z" fill="#FFB91D"/>
    <path d="M233.35 124.574C233.349 124.583 233.346 124.603 233.341 124.611C224.986 136.999 191.366 113.056 193.217 92.0734C193.535 88.4757 194.418 84.9482 194.628 81.3425C195.027 74.4983 195.103 68.31 195.103 68.31L191.408 85.9524C191.408 85.9524 185.377 111.455 160.421 113.824C160.421 113.824 167.698 96.2682 172.405 84.7867C165.604 93.8988 157.724 105.902 140.484 115.261C128.171 121.957 111.086 127.309 86.222 129.294C86.222 129.294 86.35 118.828 89.7778 106.149C93.3154 93.0842 100.354 77.6782 114.377 68.9872C94.0194 80.1274 81.7864 105.743 80.6035 121.372C80.6035 121.372 67.9849 152.525 64.1237 134.965C59.9818 116.13 64.0623 89.6044 93.3065 64.7422C93.3065 64.7422 128.884 36.2993 179.92 52.8766C179.92 52.8766 190.733 55.8865 194.82 62.3454C194.82 62.3454 223.212 62.9951 233.112 95.2801C233.112 95.2801 236.089 103.527 233.35 124.574Z" fill="#333330"/>
    <path d="M152.797 86.445C152.797 86.445 138.165 108.294 100.101 114.888C99.4403 99.5166 116.139 75.757 116.139 75.757C105.337 92.3535 152.797 86.445 152.797 86.445Z" fill="#666666"/>
    <path d="M222.977 116.815C212.504 118.952 202.307 93.4583 202.307 93.4583C214.848 109.73 223.092 98.1557 223.092 98.1557C223.092 98.1557 229.686 110.675 222.977 116.815Z" fill="#666666"/>
    <path d="M100.082 33.0929C100.082 33.0929 109.865 8.55309 131.826 21.2535C131.826 21.2535 114.641 -5.00827 73.1289 21.0381C73.1289 21.0381 98.8584 11.136 100.082 33.0926V33.0929Z" fill="#666666"/>
</svg>