<?xml version="1.0" encoding="UTF-8"?>
<svg id="headgirl1" xmlns="http://www.w3.org/2000/svg" viewBox="0 0 1120.212 1303.217">
  <path d="M480.646,425.79s.558-200.329-214.448-117.058c0,0-123.543,43.001-161.084,241.623,0,0-35.493,85.319-105.114,17.746,0,0,6.143,126.955,118.765,96.922,0,0-23.207,38.223-62.795,34.128,0,0,78.494,73.716,161.766-20.477,83.272-94.192,262.91-252.885,262.91-252.885Z" style="fill: #d36909;"/>
  <path d="M480.648,425.794s-41.541,36.696-93.93,85.256l-64.283-54.536s-105.273-27.587-150.41,114.844c-.522,1.595-1.015,3.191-1.509,4.815-1.363,4.641-2.843,9.254-4.699,13.721-34.52,82.21-132.135,63.238-154.239,26.514C1.162,591.867.002,568.109.002,568.109c40.612,39.41,69.606,26.801,86.717,9.451,10.761-10.912,17.741-24.995,20.96-39.978,40.317-187.702,158.507-228.837,158.507-228.837,215.013-83.283,214.462,117.049,214.462,117.049Z" style="fill: #ffb91d;"/>
  <path d="M721.767,764.727s57.07,6.341,34.876,72.922c-11.097,28.535-26.95,42.802-57.07,45.973-30.12,3.171,22.194-118.895,22.194-118.895Z" style="fill: #f89269;"/>
  <path d="M550.495,976.725l3.024,51.575s-53.9,7.926-107.799-1.585c0,0,.954-25.886-3.171-60.24l107.946,10.251Z" style="fill: #f89269;"/>
  <path d="M686.713,626.35s31.541,59.214,12.517,201.889c0,0,44.388,152.186-190.234,156.942-69.753,0-144.261-22.194-191.819-88.775,0,0-52.791,21.116-89.749-27.476-14.19-18.657-19.877-42.682-13.76-65.31,5.559-20.564,20.479-39.848,59.12-26.109l39.632-229.864,231.452-53.899,142.841,132.603Z" style="fill: #faba83;"/>
  <ellipse cx="423.364" cy="783.911" rx="48.351" ry="53.652" style="fill: #fff; opacity: .7;"/>
  <path d="M471.716,776.143s-1.639-48.214-48.351-49.525c-23.277-.653-35.362,12.945-41.629,26.753-.672,1.481-.991,4.601-8.271,2.125.466,4.226,4.597,7.088,4.597,7.088-.61,1.921-5.148,7.913-13.016,1.701-1.193,6.25,9.968,17.103,9.968,17.103,0,0,9.834-50.545,48.351-48.36,38.517,2.185,48.351,43.116,48.351,43.116Z" style="fill: #3f200e; opacity: .7;"/>
  <path d="M400.915,783.086c8.147,0,14.751-6.652,14.751-14.858,0-4.256-1.786-8.084-4.633-10.792,4.364-2.599,9.273-4.065,14.467-4.065,18.104,0,32.78,17.739,32.78,39.62,0,21.882-14.676,39.62-32.78,39.62-18.104,0-32.78-17.739-32.78-39.62,0-4.026.501-7.911,1.424-11.572,2.029,1.059,4.328,1.667,6.771,1.667Z" style="fill: #2e1e0e;"/>
  <path d="M678.042,783.911c0,29.631-21.648,53.652-48.351,53.652-26.704,0-48.351-24.021-48.351-53.652s21.648-53.652,48.351-53.652c26.704,0,48.351,24.021,48.351,53.652Z" style="fill: #fff; opacity: .7;"/>
  <path d="M581.339,776.143s1.639-48.214,48.351-49.525c23.277-.653,35.362,12.945,41.629,26.753.672,1.481.991,4.601,8.271,2.125-.466,4.226-4.597,7.088-4.597,7.088.61,1.921,5.148,7.913,13.016,1.701,1.193,6.25-9.968,17.103-9.968,17.103,0,0-9.834-50.545-48.351-48.36-38.517,2.185-48.351,43.116-48.351,43.116Z" style="fill: #3f200e; opacity: .7;"/>
  <path d="M602.969,783.086c8.147,0,14.751-6.652,14.751-14.858,0-4.256-1.786-8.084-4.633-10.792,4.364-2.599,9.273-4.065,14.467-4.065,18.104,0,32.78,17.739,32.78,39.62,0,21.882-14.676,39.62-32.78,39.62-18.104,0-32.78-17.739-32.78-39.62,0-4.026.501-7.911,1.424-11.572,2.029,1.059,4.328,1.667,6.771,1.667Z" style="fill: #2e1e0e;"/>
  <path d="M663.756,715.169c-6.12-4.973-30.343-22.231-65.984-16.821-1.365.207-2.762-.164-3.758-1.065-3.448-3.122-9.556-11.019,5.451-18.768,14.049-7.254,31.376-6.906,45.029.985,19.112,11.046,31.296,31.7,24.294,36.122-1.544.975-3.626.689-5.033-.454Z" style="fill: #de8413;"/>
  <path d="M378.175,718.53c11.958-7.743,41.063-22.885,78.223-16.472,3.262.563,6.536-1.074,7.923-4.06,3.068-6.603,4.464-17.968-18.186-22.899-14.586-3.175-29.912-1.914-43.643,3.916-21.136,8.974-30.459,24.516-31.807,34.909-.526,4.055,4.043,6.837,7.49,4.605Z" style="fill: #de8413;"/>
  <path d="M538.283,828.528c-1.025-.063-1.22-1.499-.237-1.797,7.732-2.339,21.411-3.594,28.973,6.221,8.295,10.766,2.794,26.382-9.992,30.992-10.075,3.633-22.438,3.679-28.26,1.188-3.113-1.332-2.678-5.8.638-6.483,8.141-1.677,26.63-1.985,28.096-11.41,2.306-14.823-10.409-18.17-19.22-18.711Z" style="fill: #f89269;"/>
  <path d="M543.191,934.5c-15.879,1.294-34.618-2.217-54.121-16.607-2.953-2.179-3.586-6.345-1.413-9.306,2.17-2.959,6.325-3.594,9.281-1.413,43.813,32.328,76.502,1.868,78.098.487,2.768-2.397,6.958-2.1,9.358.67s2.119,6.958-.637,9.37c-.296.258-13.674,14.607-40.566,16.798Z" style="fill: #f89269;"/>
  <path d="M606.65,586.499s-58.7,80.541-105.114,73.716c0,0-11.603,6.143,16.381-45.731,0,0-86.685,83.271-199.307,92.827,0,0,2.73,95.557-9.556,107.161,0,0-23.387-28.192-36.266-36.961,0,0-25.25-11.457-44.233,1.744-4.992-8.271-94.237-140.731,67.53-285.507,0,0,112.907-90.172,274.872-37.615,0,0,34.327,9.556,47.295,30.032,0,0,90.098,2.048,121.495,104.43,0,0,19.685,98.518-40.519,237.644,9.184-74.248,1.959-112.024,1.959-112.024-35.215-30.406-78.062-56.271-94.539-129.715Z" style="fill: #d36909;"/>
  <path d="M343.498,487.22s96.273-31.739,146.425-24.572l-9.276-36.858s-77.93-75.763-158.219,30.715c0,0,10.832,23.548,21.071,30.715Z" style="fill: #2e1e0e;"/>
  <path d="M740.512,683.473c-.004.029-.012.091-.029.116-26.512,39.281-133.202-36.639-127.328-103.169,1.007-11.408,3.809-22.593,4.476-34.026,1.266-21.701,1.508-41.323,1.508-41.323l-11.726,55.94s-19.139,80.863-98.333,88.377c0,0,23.091-55.667,38.03-92.073-21.583,28.892-46.588,66.952-101.298,96.627-39.075,21.234-93.292,38.204-172.196,44.499,0,0,.406-33.186,11.284-73.391,11.226-41.424,33.563-90.274,78.063-117.832-64.603,35.324-103.423,116.547-107.177,166.101,0,0-40.044,98.781-52.297,43.104-13.144-59.724-.195-143.831,92.609-222.664,0,0,112.902-90.187,274.858-37.624,0,0,34.317,9.544,47.284,30.024,0,0,90.101,2.06,121.518,104.43,0,0,9.447,26.149.754,92.885Z" style="fill: #ffb91d;"/>
  <path d="M484.884,562.573s-46.432,69.278-167.224,90.186c-2.097-48.739,50.894-124.076,50.894-124.076-34.278,52.624,116.33,33.89,116.33,33.89Z" style="fill: #ffdd5b;"/>
  <path d="M707.595,658.87c-33.234,6.778-65.594-74.059-65.594-74.059,39.8,51.595,65.96,14.895,65.96,14.895,0,0,20.927,39.697-.366,59.164Z" style="fill: #ffdd5b;"/>
  <path d="M317.6,393.404s31.045-77.811,100.736-37.54c0,0-54.535-83.271-186.269-.683,0,0,81.65-31.397,85.533,38.223Z" style="fill: #ffdd5b;"/>
</svg>