<svg viewBox="0 0 241 235" fill="none" xmlns="http://www.w3.org/2000/svg">
    <path d="M151.461 43.3065C151.461 43.3065 151.636 -19.8719 83.884 6.38953C83.884 6.38953 44.9533 19.9509 33.1234 82.591C33.1234 82.591 21.9389 109.498 0 88.1876C0 88.1876 1.93577 128.226 37.4251 118.754C37.4251 118.754 30.1121 130.809 17.6372 129.517C17.6372 129.517 42.3721 152.765 68.6127 123.059C94.8533 93.3538 151.461 43.3062 151.461 43.3062V43.3065Z" fill="#D36909"/>
    <path d="M151.462 43.3078C151.462 43.3078 138.371 54.8807 121.862 70.1953L101.606 52.9961C101.606 52.9961 68.4322 44.2959 54.2087 89.2148C54.0442 89.7178 53.8888 90.2212 53.7332 90.7333C53.3037 92.197 52.8373 93.6518 52.2524 95.0606C41.3745 120.987 10.6142 115.004 3.64879 103.422C0.366514 95.6828 0.000976562 88.1902 0.000976562 88.1902C12.7986 100.619 21.9351 96.6425 27.3271 91.1708C30.7181 87.7294 32.9177 83.288 33.932 78.5628C46.6367 19.3665 83.8806 6.39366 83.8806 6.39366C151.635 -19.8716 151.462 43.3078 151.462 43.3078Z" fill="#FFB91D"/>
    <path d="M227.442 150.198C227.442 150.198 245.426 152.198 238.432 173.196C234.935 182.195 229.94 186.695 220.448 187.695C210.957 188.695 227.442 150.198 227.442 150.198Z" fill="#F89269"/>
    <path d="M173.471 217.057L174.424 233.322C174.424 233.322 157.439 235.822 140.454 232.822C140.454 232.822 140.755 224.659 139.455 213.824L173.471 217.057V217.057Z" fill="#F89269"/>
    <path d="M216.396 106.558C216.396 106.558 226.335 125.232 220.341 170.228C220.341 170.228 234.328 218.224 160.394 219.724C138.414 219.724 114.935 212.724 99.9485 191.726C99.9485 191.726 83.313 198.386 71.6669 183.061C67.1953 177.177 65.4032 169.6 67.3308 162.464C69.0826 155.979 73.7842 149.897 85.9607 154.23L98.4495 81.737L171.384 64.7386L216.396 106.558V106.558Z" fill="#FABA83"/>
    <path opacity="0.7" d="M133.41 173.169C141.825 173.169 148.646 165.593 148.646 156.248C148.646 146.903 141.825 139.328 133.41 139.328C124.995 139.328 118.174 146.903 118.174 156.248C118.174 165.593 124.995 173.169 133.41 173.169Z" fill="white"/>
    <path opacity="0.7" d="M148.647 153.799C148.647 153.799 148.13 138.593 133.41 138.18C126.075 137.974 122.267 142.262 120.292 146.617C120.081 147.084 119.98 148.068 117.686 147.287C117.833 148.62 119.135 149.522 119.135 149.522C118.942 150.128 117.512 152.018 115.033 150.059C114.657 152.03 118.174 155.453 118.174 155.453C118.174 155.453 121.273 139.512 133.41 140.201C145.548 140.89 148.647 153.799 148.647 153.799Z" fill="#3F200E"/>
    <path d="M126.336 155.988C128.904 155.988 130.985 153.89 130.985 151.302C130.985 149.96 130.422 148.753 129.525 147.899C130.9 147.079 132.447 146.617 134.084 146.617C139.788 146.617 144.413 152.211 144.413 159.112C144.413 166.013 139.788 171.607 134.084 171.607C128.379 171.607 123.754 166.013 123.754 159.112C123.754 157.842 123.912 156.617 124.203 155.462C124.842 155.796 125.566 155.988 126.336 155.988Z" fill="#2E1E0E"/>
    <path opacity="0.7" d="M213.664 156.248C213.664 165.593 206.842 173.169 198.428 173.169C190.013 173.169 183.191 165.593 183.191 156.248C183.191 146.904 190.013 139.328 198.428 139.328C206.843 139.328 213.664 146.904 213.664 156.248Z" fill="white"/>
    <path opacity="0.7" d="M183.191 153.799C183.191 153.799 183.708 138.593 198.428 138.18C205.763 137.974 209.571 142.262 211.546 146.617C211.758 147.084 211.858 148.068 214.152 147.287C214.005 148.62 212.704 149.522 212.704 149.522C212.896 150.128 214.326 152.018 216.805 150.059C217.181 152.03 213.664 155.453 213.664 155.453C213.664 155.453 210.565 139.512 198.428 140.201C186.29 140.89 183.191 153.799 183.191 153.799Z" fill="#3F200E"/>
    <path d="M190.007 155.988C192.574 155.988 194.656 153.89 194.656 151.302C194.656 149.96 194.093 148.753 193.196 147.899C194.571 147.079 196.118 146.617 197.754 146.617C203.459 146.617 208.084 152.211 208.084 159.112C208.084 166.013 203.459 171.607 197.754 171.607C192.049 171.607 187.425 166.013 187.425 159.112C187.425 157.842 187.583 156.617 187.874 155.462C188.513 155.796 189.237 155.988 190.007 155.988Z" fill="#2E1E0E"/>
    <path d="M209.162 134.569C207.233 133.001 199.6 127.558 188.369 129.264C187.939 129.329 187.499 129.212 187.185 128.928C186.098 127.944 184.174 125.453 188.903 123.009C193.33 120.722 198.79 120.831 203.092 123.32C209.115 126.804 212.954 133.317 210.748 134.712C210.261 135.019 209.605 134.929 209.162 134.569L209.162 134.569Z" fill="#DE8413"/>
    <path d="M119.17 135.629C122.938 133.187 132.11 128.412 143.82 130.434C144.848 130.612 145.879 130.095 146.316 129.154C147.283 127.071 147.723 123.487 140.586 121.932C135.989 120.931 131.16 121.328 126.833 123.167C120.173 125.997 117.235 130.899 116.81 134.176C116.644 135.455 118.084 136.333 119.17 135.629V135.629Z" fill="#DE8413"/>
    <path d="M169.623 170.319C169.3 170.3 169.239 169.847 169.548 169.753C171.985 169.015 176.295 168.619 178.678 171.715C181.292 175.11 179.559 180.035 175.53 181.489C172.355 182.634 168.459 182.649 166.624 181.863C165.643 181.443 165.781 180.034 166.825 179.819C169.391 179.29 175.217 179.193 175.679 176.22C176.406 171.546 172.399 170.49 169.622 170.319H169.623Z" fill="#F89269"/>
    <path d="M171.17 203.74C166.166 204.148 160.261 203.041 154.115 198.503C153.184 197.816 152.985 196.502 153.67 195.568C154.354 194.635 155.663 194.434 156.594 195.122C170.401 205.318 180.702 195.711 181.205 195.276C182.077 194.52 183.397 194.614 184.153 195.487C184.91 196.361 184.821 197.681 183.953 198.442C183.859 198.524 179.644 203.049 171.17 203.74Z" fill="#F89269"/>
    <path d="M191.167 93.9899C191.167 93.9899 172.669 119.39 158.044 117.238C158.044 117.238 154.387 119.175 163.205 102.816C163.205 102.816 135.889 129.077 100.4 132.091C100.4 132.091 101.26 162.227 97.3888 165.887C97.3888 165.887 90.0191 156.995 85.9607 154.23C85.9607 154.23 78.0039 150.617 72.022 154.78C70.449 152.172 42.3262 110.397 93.302 64.7387C93.302 64.7387 128.881 36.3008 179.919 52.8759C179.919 52.8759 190.736 55.8896 194.823 62.3472C194.823 62.3472 223.215 62.9931 233.108 95.2816C233.108 95.2816 239.311 126.352 220.34 170.228C223.234 146.812 220.957 134.899 220.957 134.899C209.86 125.31 196.359 117.152 191.166 93.9902L191.167 93.9899Z" fill="#D36909"/>
    <path d="M108.243 62.6799C108.243 62.6799 138.581 52.6703 154.384 54.9305L151.461 43.3065C151.461 43.3065 126.904 19.4129 101.604 52.9932C101.604 52.9932 105.017 60.4196 108.243 62.6799H108.243Z" fill="#2E1E0E"/>
    <path d="M233.35 124.573C233.349 124.582 233.346 124.602 233.341 124.609C224.986 136.998 191.366 113.055 193.217 92.0727C193.535 88.4749 194.418 84.9475 194.628 81.3418C195.027 74.4979 195.103 68.3097 195.103 68.3097L191.408 85.9516C191.408 85.9516 185.377 111.454 160.421 113.823C160.421 113.823 167.698 96.2675 172.405 84.786C165.604 93.8978 157.724 105.901 140.484 115.26C128.171 121.956 111.086 127.308 86.222 129.293C86.222 129.293 86.35 118.827 89.7778 106.148C93.3154 93.0838 100.354 77.6778 114.377 68.9868C94.0194 80.127 81.7864 105.743 80.6035 121.371C80.6035 121.371 67.9849 152.523 64.1237 134.964C59.9818 116.129 64.0623 89.604 93.3065 64.7422C93.3065 64.7422 128.884 36.2996 179.92 52.8765C179.92 52.8765 190.733 55.8865 194.82 62.3453C194.82 62.3453 223.212 62.995 233.112 95.2798C233.112 95.2798 236.089 103.526 233.35 124.573Z" fill="#FFB91D"/>
    <path d="M152.797 86.4442C152.797 86.4442 138.165 108.293 100.101 114.886C99.4403 99.5155 116.139 75.7562 116.139 75.7562C105.337 92.3524 152.797 86.4442 152.797 86.4442Z" fill="#FFDD5B"/>
    <path d="M222.977 116.814C212.504 118.951 202.307 93.4575 202.307 93.4575C214.848 109.729 223.092 98.155 223.092 98.155C223.092 98.155 229.686 110.674 222.977 116.814Z" fill="#FFDD5B"/>
    <path d="M100.082 33.0928C100.082 33.0928 109.865 8.55333 131.826 21.2537C131.826 21.2537 114.641 -5.00773 73.1289 21.0383C73.1289 21.0383 98.8584 11.1365 100.082 33.0928Z" fill="#FFDD5B"/>
</svg>