<?xml version="1.0" encoding="UTF-8"?>
<svg id="_Слой_1" data-name="Слой 1" xmlns="http://www.w3.org/2000/svg" xmlns:xlink="http://www.w3.org/1999/xlink" viewBox="0 0 1479.383 476.235">
  <defs>
    <linearGradient id="_Безымянный_градиент_40" data-name="Безымянный градиент 40" x1="434.423" y1="351.442" x2="41.792" y2="124.756" gradientUnits="userSpaceOnUse">
      <stop offset="0" stop-color="#fff"/>
      <stop offset="1" stop-color="#7a7a7a"/>
    </linearGradient>
    <linearGradient id="_Безымянный_градиент_124" data-name="Безымянный градиент 124" x1="26.879" y1="148.59" x2="113.036" y2="234.747" gradientUnits="userSpaceOnUse">
      <stop offset="0" stop-color="#bebebe" stop-opacity=".6"/>
      <stop offset=".224" stop-color="#adadad" stop-opacity=".71"/>
      <stop offset="1" stop-color="#828282"/>
    </linearGradient>
    <linearGradient id="_Безымянный_градиент_124-2" data-name="Безымянный градиент 124" x1="224.318" y1="132.909" x2="288.493" y2="197.084" gradientTransform="translate(365.204 -119.837) rotate(78.144)" xlink:href="#_Безымянный_градиент_124"/>
    <linearGradient id="_Безымянный_градиент_124-3" data-name="Безымянный градиент 124" x1="165.306" y1="217.939" x2="195.544" y2="264.246" gradientTransform="translate(-43.845 93.787) rotate(-11.856)" xlink:href="#_Безымянный_градиент_124"/>
    <linearGradient id="_Безымянный_градиент_124-4" data-name="Безымянный градиент 124" x1="357.8" y1="78.497" x2="420.047" y2="140.745" xlink:href="#_Безымянный_градиент_124"/>
    <linearGradient id="_Безымянный_градиент_124-5" data-name="Безымянный градиент 124" x1="236.312" y1="364.823" x2="301.952" y2="430.463" xlink:href="#_Безымянный_градиент_124"/>
    <linearGradient id="_Безымянный_градиент_124-6" data-name="Безымянный градиент 124" x1="168.801" y1="8.182" x2="199.241" y2="38.622" xlink:href="#_Безымянный_градиент_124"/>
    <linearGradient id="_Безымянный_градиент_124-7" data-name="Безымянный градиент 124" x1="57.812" y1="345.493" x2="103.962" y2="391.643" xlink:href="#_Безымянный_градиент_124"/>
    <linearGradient id="_Безымянный_градиент_124-8" data-name="Безымянный градиент 124" x1="330.125" y1="212.475" x2="437.927" y2="320.276" xlink:href="#_Безымянный_градиент_124"/>
  </defs>
  <g>
    <path d="M474.009,238.118c0,130.244-105.647,235.891-235.891,235.891-61.114,0-116.815-23.295-158.677-61.388-15.827-14.319-29.666-30.831-41.108-49.055C15.45,327.253,2.227,284.227,2.227,238.118c0-5.344.206-10.619.548-15.827,1.918-29.461,9.249-57.414,21.034-82.901,23.911-51.933,66.184-93.589,118.459-116.884,23.363-10.414,48.781-17.128,75.433-19.389,6.714-.617,13.565-.891,20.417-.891,55.222,0,106.059,18.978,146.276,50.837,23.5,18.567,43.369,41.588,58.373,67.691,19.869,34.531,31.242,74.611,31.242,117.363Z" style="fill: #fff;"/>
    <g>
      <path d="M134.937,188.172c0,31.379-32.886,56.866-73.446,56.866-23.98,0-45.288-8.907-58.716-22.746,1.918-29.461,9.249-57.414,21.034-82.901,11.031-5.07,23.911-8.016,37.682-8.016,40.56,0,73.446,25.419,73.446,56.798Z" style="fill: #fff;"/>
      <ellipse cx="257.151" cy="162.013" rx="50.351" ry="45.829" transform="translate(45.763 380.394) rotate(-78.144)" style="fill: #fff;"/>
      <path d="M210.143,294.894c0,15.096-13.503,27.333-30.159,27.333-16.656,0-30.159-12.238-30.159-27.333,0-15.096,13.503-27.333,30.159-27.333s30.159,12.238,30.159,27.333Z" style="fill: #fff;"/>
      <path d="M442.767,120.754c-8.29,11.236-21.65,18.499-36.723,18.499-25.281,0-45.835-20.485-45.835-45.835,0-17.471,9.797-32.681,24.185-40.354,23.5,18.567,43.369,41.588,58.373,67.691Z" style="fill: #fff;"/>
      <ellipse cx="270.397" cy="404.152" rx="50.665" ry="45.829" style="fill: #fff;"/>
      <path d="M217.701,3.117c-5.892,18.635-23.295,32.133-43.78,32.133-12.332,0-23.431-4.865-31.653-12.744,23.363-10.414,48.781-17.128,75.433-19.389Z" style="fill: #fff;"/>
      <path d="M101.502,380.831c0,14.593-9.181,26.994-22.061,31.79-15.827-14.319-29.666-30.831-41.108-49.055,5.823-10.003,16.717-16.717,29.187-16.717,18.773,0,33.982,15.21,33.982,33.983Z" style="fill: #fff;"/>
      <circle cx="389.979" cy="267.528" r="79.337" style="fill: #fff;"/>
    </g>
  </g>
  <g>
    <path d="M464.762,238.118c0,125.138-101.506,226.644-226.644,226.644-58.718,0-112.236-22.382-152.456-58.982-15.206-13.758-28.503-29.622-39.497-47.132-21.987-34.889-34.691-76.228-34.691-120.53,0-5.135.198-10.203.527-15.206,1.843-28.306,8.887-55.164,20.209-79.652,22.974-49.897,63.589-89.92,113.816-112.302,22.447-10.006,46.869-16.457,72.476-18.629,6.451-.593,13.034-.856,19.616-.856,53.057,0,101.901,18.234,140.542,48.844,22.579,17.839,41.669,39.957,56.085,65.038,19.09,33.177,30.017,71.686,30.017,112.763Z" style="fill: url(#_Безымянный_градиент_40);"/>
    <g>
      <path d="M138.981,190.13c0,30.149-31.597,54.637-70.567,54.637-23.04,0-43.512-8.557-56.414-21.855,1.843-28.306,8.887-55.164,20.209-79.652,10.598-4.871,22.974-7.702,36.205-7.702,38.97,0,70.567,24.422,70.567,54.571Z" style="fill: url(#_Безымянный_градиент_124);"/>
      <ellipse cx="256.405" cy="164.996" rx="48.377" ry="44.033" transform="translate(42.251 382.034) rotate(-78.144)" style="fill: url(#_Безымянный_градиент_124-2);"/>
      <path d="M211.24,292.669c0,14.504-12.973,26.262-28.977,26.262-16.003,0-28.977-11.758-28.977-26.262,0-14.504,12.973-26.262,28.977-26.262s28.977,11.758,28.977,26.262Z" style="fill: url(#_Безымянный_градиент_124-3);"/>
      <path d="M434.744,125.355c-7.965,10.796-20.801,17.774-35.283,17.774-24.29,0-44.039-19.682-44.039-44.039,0-16.786,9.413-31.4,23.237-38.773,22.579,17.839,41.669,39.957,56.085,65.038Z" style="fill: url(#_Безымянный_градиент_124-4);"/>
      <ellipse cx="269.132" cy="397.643" rx="48.679" ry="44.033" style="fill: url(#_Безымянный_градиент_124-5);"/>
      <path d="M218.501,12.329c-5.661,17.905-22.382,30.873-42.064,30.873-11.849,0-22.513-4.674-30.412-12.244,22.447-10.006,46.869-16.457,72.476-18.629Z" style="fill: url(#_Безымянный_градиент_124-6);"/>
      <path d="M106.858,375.237c0,14.021-8.821,25.936-21.196,30.544-15.206-13.758-28.503-29.622-39.497-47.132,5.595-9.611,16.062-16.062,28.043-16.062,18.037,0,32.65,14.614,32.65,32.651Z" style="fill: url(#_Безымянный_градиент_124-7);"/>
      <circle cx="384.026" cy="266.375" r="76.227" style="fill: url(#_Безымянный_градиент_124-8);"/>
    </g>
  </g>
</svg>