<?xml version="1.0" encoding="UTF-8"?>
<svg id="_Слой_1" data-name="Слой 1" xmlns="http://www.w3.org/2000/svg" xmlns:xlink="http://www.w3.org/1999/xlink" viewBox="0 0 2777.294 476.235">
  <defs>
    <linearGradient id="_Безымянный_градиент_766" data-name="Безымянный градиент 766" x1="10.861" y1="254.009" x2="465.376" y2="222.226" gradientUnits="userSpaceOnUse">
      <stop offset="0" stop-color="#309c62"/>
      <stop offset=".225" stop-color="#30a162"/>
      <stop offset=".496" stop-color="#32af63"/>
      <stop offset=".79" stop-color="#35c864"/>
      <stop offset="1" stop-color="#38de66"/>
    </linearGradient>
    <linearGradient id="_Безымянный_градиент_606" data-name="Безымянный градиент 606" x1="58.468" y1="384.367" x2="312.672" y2="249.204" gradientUnits="userSpaceOnUse">
      <stop offset="0" stop-color="#00c6e2" stop-opacity=".6"/>
      <stop offset=".221" stop-color="#18a7c3" stop-opacity=".772"/>
      <stop offset=".459" stop-color="#2990ad" stop-opacity=".899"/>
      <stop offset=".711" stop-color="#3482a0" stop-opacity=".975"/>
      <stop offset="1" stop-color="#387e9c"/>
    </linearGradient>
    <linearGradient id="_Безымянный_градиент_606-2" data-name="Безымянный градиент 606" x1="40.542" y1="151.756" x2="272.739" y2="28.294" xlink:href="#_Безымянный_градиент_606"/>
    <linearGradient id="_Безымянный_градиент_606-3" data-name="Безымянный градиент 606" x1="357.284" y1="223.014" x2="458.548" y2="169.171" xlink:href="#_Безымянный_градиент_606"/>
  </defs>
  <g>
    <path d="M476.235,238.118c0,2.282,0,4.495-.069,6.778-3.596,128.361-108.858,231.34-238.048,231.34-50.279,0-96.962-15.63-135.415-42.326-26.557-18.328-49.103-41.911-66.393-69.298C13.348,327.956,0,284.593,0,238.118c0-37.485,8.645-72.894,24.068-104.432C62.728,54.498,144.06,0,238.118,0c9.129,0,18.189.484,27.041,1.591,86.796,9.752,159.414,66.186,192.265,143.576,12.103,28.563,18.811,59.962,18.811,92.951Z" style="fill: #fff;"/>
    <g>
      <path d="M372.841,400.159c-37.83,20.748-98.484-9.475-125.11,32.298-26.558,41.773-42.049-80.018-72.618-75.661-24.414,3.458-65.218,43.225-72.411,77.114-26.557-18.328-49.103-41.911-66.393-69.298,34.027-44.746,24.621-96.271,15.353-124.073-6.363-19.226,6.363-40.666,26.627-42.326,14.869-1.245,32.505,7.815,48.896,43.294,7.677,16.667,29.739,19.572,42.326,6.293,20.817-22.2,54.429-40.666,102.011-15.699,87.902,46.06-14.593,59.132,36.655,91.014,51.247,31.883,102.495,56.296,64.664,77.044Z" style="fill: #fff;"/>
      <path d="M254.578,29.047c6.708,29.669,3.182,67.846-44.124,93.366-87.349,47.098-40.805-45.231-95.925-20.61-38.453,17.221-73.932,36.447-90.461,31.883C62.728,54.498,144.06,0,238.118,0c9.129,0,18.189.484,27.041,1.591-8.299,5.74-13.071,16.391-10.581,27.457Z" style="fill: #fff;"/>
      <path d="M476.235,238.118c0,2.282,0,4.495-.069,6.778-29.669-15.768-72.549-23.998-91.291-4.703-26.972,27.872-53.461-152.083,37.208-106.783,12.172,6.086,23.999,9.821,35.341,11.757,12.103,28.563,18.811,59.962,18.811,92.951Z" style="fill: #fff;"/>
    </g>
  </g>
  <g>
    <path d="M465.921,238.118c0,2.184,0,4.3-.066,6.484-3.44,122.801-104.143,221.32-227.738,221.32-48.102,0-92.763-14.953-129.55-40.493-25.407-17.534-46.977-40.096-63.518-66.297-21.967-35.067-34.736-76.552-34.736-121.014,0-35.861,8.271-69.737,23.025-99.908C70.325,62.451,148.134,10.314,238.118,10.314c8.734,0,17.401.463,25.87,1.522,83.037,9.329,152.509,63.319,183.937,137.357,11.579,27.326,17.997,57.364,17.997,88.925Z" style="fill: url(#_Безымянный_градиент_766);"/>
    <g>
      <path d="M367.006,393.141c-36.192,19.849-94.218-9.064-119.691,30.899-25.407,39.964-40.228-76.552-69.473-72.384-23.356,3.308-62.393,41.353-69.274,73.773-25.407-17.534-46.977-40.096-63.518-66.297,32.553-42.808,23.554-92.101,14.688-118.699-6.087-18.393,6.087-38.905,25.474-40.493,14.225-1.191,31.097,7.477,46.778,41.419,7.344,15.945,28.451,18.725,40.493,6.021,19.916-21.238,52.071-38.904,97.592-15.019,84.095,44.065-13.961,56.57,35.067,87.072,49.028,30.502,98.056,53.858,61.864,73.707Z" style="fill: url(#_Безымянный_градиент_606);"/>
      <path d="M253.865,38.103c6.418,28.384,3.044,64.907-42.213,89.322-83.566,45.058-39.037-43.272-91.77-19.717-36.787,16.475-70.73,34.869-86.543,30.502C70.325,62.451,148.134,10.314,238.118,10.314c8.734,0,17.401.463,25.87,1.522-7.939,5.492-12.505,15.681-10.123,26.267Z" style="fill: url(#_Безымянный_градиент_606-2);"/>
      <path d="M465.921,238.118c0,2.184,0,4.3-.066,6.484-28.384-15.085-69.406-22.959-87.337-4.499-25.804,26.664-51.145-145.495,35.596-102.158,11.645,5.822,22.959,9.395,33.81,11.248,11.579,27.326,17.997,57.364,17.997,88.925Z" style="fill: url(#_Безымянный_градиент_606-3);"/>
    </g>
  </g>
</svg>