<svg width="1439" height="127" viewBox="0 0 1439 127" fill="none" xmlns="http://www.w3.org/2000/svg">
<path d="M212.574 119.854C246.986 131.888 85.1963 124.868 0 119.854V0H1439V98.0181C1350.97 119.854 957.533 131.888 940.327 119.854C918.819 104.811 867.802 133.44 897.812 111.605C921.613 94.2872 726.753 111.605 701.744 119.854C674.935 128.697 498.673 130.044 451.157 119.854C406.233 110.22 169.559 104.811 212.574 119.854Z" fill="black" fill-opacity="0.41"/>
<path d="M212.574 106.642C246.986 117.349 85.1963 111.103 0 106.642V0H1439V87.2129C1350.97 106.642 957.533 117.349 940.327 106.642C918.819 93.2574 867.802 118.73 897.812 99.3018C921.613 83.8934 726.753 99.3018 701.744 106.642C674.935 114.51 498.673 115.708 451.157 106.642C406.233 98.0696 169.559 93.2574 212.574 106.642Z" fill="url(#paint0_linear_2233_496)"/>
<defs>
<linearGradient id="paint0_linear_2233_496" x1="0.000961105" y1="-0.43211" x2="1114.02" y2="3073.17" gradientUnits="userSpaceOnUse">
<stop stop-color="#192130"/>
<stop offset="1" stop-color="#040914"/>
</linearGradient>
</defs>
</svg>
