<?xml version="1.0" encoding="UTF-8"?>
<svg id="headboy1" xmlns="http://www.w3.org/2000/svg" viewBox="0 0 1163.4585878503 1272.5891918199">
  <g id="lightboy2">
    <path d="M697.8283143561,691.1148128429s58.3026297765,6.4780699778,35.6293848602,74.4978047163c-11.3366224579,29.1513148879-27.5317973965,43.7269723313-58.3026297788,46.9660073175-30.7708323823,3.2390349862,22.6732449186-121.4638120339,22.6732449186-121.4638120339Z" style="fill: #f89269;"/>
    <path d="M521.3009075222,909.7496744978l2.5937497283,44.2416142151s-55.0635947895,8.0975874665-110.1271895782-1.6195174987c0,0,.9742322376-26.4455611028-3.2390349848-61.5416647645l110.7724748348,18.9195680482Z" style="fill: #f89269;"/>
    <path d="M665.6065287985,552.8842314592s32.2217855611,60.4937416814,12.787575629,206.2503161224c0,0,45.3464898194,155.4736794067-194.342099263,160.3322318773-71.2587697272-.0000000032-147.3760919347-22.6732449198-195.9616167456-90.6929796615,0,0-53.9305570512,21.5722228176-91.6865604381-28.0695074852-14.4967545992-19.0603855685-20.3062523447-43.6036794882-14.0568961282-66.7207670817,5.6792064207-21.0080379065,20.9212278346-40.7093557514,60.3969667453-26.67353747l40.4879373555-234.830036599,236.4495540971-55.0635947785,145.925138748,135.4678750763Z" style="fill: #faba83;"/>
    <path d="M677.3273421796,590.8764263397c6.5437047171,5.8532054835-175.9750469739-39.5448827478-210.2802706819-75.8841409577l39.6781785958,49.8001629361s-16.1951749397,38.8684198504-106.8881545893-32.3903498808c0,0,4.8585524811,6.4780699754,3.2390349871,11.3366224567-1.619517494,4.8585524813-38.8684198515,8.0975874673-85.8344271698-34.0098673736l-34.0098673681-37.2489023589,236.4495540971-55.0635947785,145.925138748,135.4678750763" style="fill: #f89269;"/>
    <ellipse cx="601.4670234745" cy="704.8807115359" rx="47.7757660671" ry="52.6343185485" style="fill: #fff; opacity: .7;"/>
    <path d="M649.2427895419,697.2594527439s-1.6195174917-47.2994373922-47.7757660649-48.5855248161c-46.1562485732-1.2860874239-47.7757660694,53.729874498-47.7757660694,53.729874498,0,0,9.717104965-49.58581503,47.7757660692-47.4423359927,38.0586611042,2.1434790374,47.7757660652,42.2979863108,47.7757660652,42.2979863108Z" style="fill: #3f200e; opacity: .7;"/>
    <path d="M569.8864323454,704.0709527875c8.0499429724.0000000004,14.5756574445-6.5258133186,14.5756574448-14.5756574435.0000000002-4.1752196912-1.7650210183-7.9301397985-4.5782209616-10.5874572294,4.3122223309-2.5498701945,9.1629658596-3.9882002146,14.2953259251-3.9882002143,17.8887292117.0000000008,32.3903498752,17.402004107,32.3903498742,38.8684198526-.000000001,21.4664157456-14.501620666,38.8684198505-32.3903498777,38.8684198497s-32.3903498752-17.402004107-32.3903498742-38.8684198526c.0000000001-3.9500450787.4947317543-7.7605174828,1.4074895997-11.352240362,2.004923909,1.0386895646,4.276142992,1.6351353995,6.6900978697,1.6351353996Z" style="fill: #2e1e0e;"/>
    <ellipse cx="390.9297492807" cy="704.3231120205" rx="49.3952835609" ry="54.8114355481" style="fill: #fff; opacity: .7;"/>
    <path d="M440.3250328419,696.3866145681s-1.6744163897-49.2558873295-49.3952835586-50.5951712774c-47.7208671689-1.3392839479-49.3952835634,55.9523070551-49.3952835634,55.9523070551,0,0,10.0464983537-51.6368365655,49.3952835631-49.4046966548,39.3487852094,2.2321399107,49.3952835589,44.0475608771,49.3952835589,44.0475608771Z" style="fill: #3f200e; opacity: .7;"/>
    <path d="M367.9957346016,703.4798591649c8.3228223952.0000000004,15.0697475273-6.7957409914,15.0697475277-15.1785513819.0000000002-4.3479195953-1.8248522392-8.2581547257-4.7334148925-11.0253869633,4.458399359-2.6553406537,9.4735748718-4.153164419,14.7799132445-4.1531644188,18.4951268122.0000000008,33.4883278371,18.1218044201,33.4883278361,40.4761370217-.000000001,22.3543326016-14.9932010276,40.4761370195-33.4883278397,40.4761370187-18.4951268121-.0000000008-33.4883278371-18.1218044201-33.4883278361-40.4761370217.0000000002-4.1134310696.5115023222-8.0815163102,1.4552011116-11.8218038742,2.0728874314,1.0816529537,4.4210969917,1.7027696194,6.9168808483,1.7027696195Z" style="fill: #2e1e0e;"/>
    <path d="M644.4443862227,618.4350470093c-6.2741625934-5.4308610465-31.1049578343-24.2789023072-67.6406774042-18.3703202835-1.3993945263.2263110578-2.8317338505-.1786170336-3.851995338-1.1627858364-3.5344906665-3.4094548219-9.7960359079-12.0337860468,5.5879121974-20.4966963383,14.4019589873-7.9227052833,32.1634303477-7.5424026863,46.1600463635,1.0762063535,19.5922634218,12.0642059799,32.0823978,34.6208026025,24.9043248148,39.4497638842-1.5829072706,1.0648816107-3.7171658805.7523999623-5.1596106336-.4961677796Z" style="fill: #de8413;"/>
    <path d="M341.1576842161,618.9374548079c12.2580688154-8.4568478169,42.0942089973-24.9938233529,80.1874625701-17.9893407843,3.3435709567.6148066202,6.6996881944-1.172846101,8.122163417-4.4341458125,3.1455110806-7.2116928414,4.5761699873-19.6237169754-18.6430562439-25.0083286408-14.9524932223-3.467530254-30.6632862681-2.0898954972-44.7389318782,4.2772607692-21.666269211,9.8007953311-31.2236564916,26.7749263965-32.6057639618,38.125198078-.5392463669,4.4284492344,4.144110604,7.4674754494,7.6781260968,5.0293563904Z" style="fill: #de8413;"/>
    <path d="M506.1064379726,746.2199613388c-1.2638549519-.0775745969-1.5037585142-1.8481836024-.2917885194-2.2148931462,9.5317107969-2.8840394834,26.3955432358-4.4311952158,35.7180272516,7.6687033321,10.2258977432,13.2724631167,3.4438492261,32.5240281354-12.3178713037,38.2069347667-12.4208405433,4.4783484745-27.6619788494,4.5360291963-34.8381425864,1.4648490204-3.8375641422-1.6423609256-3.3014771914-7.1499323398.7869244786-7.9920841905,10.0364119918-2.0673562961,32.829197927-2.447072071,34.6366762925-14.0666424506,2.8425428936-18.2736393396-12.8325798645-22.4002111157-23.6938256131-23.066867332Z" style="fill: #f89269;"/>
    <path d="M505.9493378074,866.0122049889c-21.7419871068,0-46.8272485091-6.8310551105-71.7376748628-28.4927608176-4.5671196351-3.9712532453-5.0505920653-10.8950779734-1.0775547889-15.4639816396,3.9694692141-4.5671196351,10.8932939423-5.0505920653,15.4639816396-1.0775547889,53.6672237752,46.6702537717,106.6511636362,9.0503898083,108.8794184894,7.4269215004,4.8775410478-3.5573580283,11.7335725939-2.5047796749,15.3069869022,2.3620571863,3.5716302772,4.8686208923,2.5493804526,11.6996760029-2.306752222,15.2891465911-.4299514969.3175575371-27.670322477,19.9561719683-64.5284051575,19.9561719683Z" style="fill: #f89269;"/>
    <path d="M277.8969547846,757.9199094435s-26.1203947187-61.5411095718-70.7824410501-53.8489566722c0,0-91.1693083176-216.6104647994,27.0554687317-260.3374371267,0,0-64.7806997521,3.2390349847-64.7806997515-11.3366224595,0,0,33.6288044319-38.8684198497,74.3072732449.0000000033,0,0-14.3851259713-68.0197347402,43.9175038071-103.6491196011,27.5317973951-11.3366224554,6.4780699724,61.5416647646,6.4780699724,61.5416647646,0,0,119.304506545-132.0303205646,318.5004122988-47.6791864121,3.3069064746,1.4003365712,6.532020478,2.9814978126,9.7080273596,4.6576700091,17.0615141538,9.0043997769,81.3723825106,40.9482570015,130.1150110869,38.1629639422,37.2489023574-1.6195174921-16.1951749407,59.9221472698-45.3464898289,56.6831122809,0,0,72.5492760887,52.4824550478,66.9489511547,112.2377020027-.3991333631,4.2587372989-2.0338698848,8.3703165419-4.9043502992,11.5415139519-4.9819141657,5.5038289826-14.4712744812,9.4260979125-29.6542509847-8.7934738934,0,0-6.0225957917,132.5683189161-59.4458186045,190.6981848919,0,0,15.1472518586-105.8640479388-10.4792308345-172.5738788245,0,0-143.8512597421-26.221893546-181.1001620975-69.9488658802,0,0,17.8146924303,32.3903498768,24.2927624044,58.3026297778,0,0,17.8146924293,55.06359479-114.9857420575-48.5855248191,0,0,8.0023217335,13.2339790016,8.8597133475,21.1926469452,0,0,2.4769091063,41.9685353135-80.1184830742-30.9097519112,0,0-4.858552485,80.9758746897-40.4879373502,116.6052595517-17.8146924327,19.4342099248,8.0975874615,165.1907843678-8.0975874751,136.0394694787Z" style="fill: #d36909;"/>
    <path d="M234.159891846,443.7347001968c-76.7305641153,31.9100704144-55.4165460646,123.6618681542-48.3321922688,147.6553776323.6700277252,2.2734853476,3.7758441116,2.55770199,4.8517540168.4465199562,7.3073659841-14.2498592501,14.8181686411-36.7615766427,14.8181686411-36.7615766427-.0000000021,46.9720657148,16.1986140718,72.8736922416,56.6750781632,58.2989785744,66.3981617159-48.5757711253,51.8234480511-142.5197786599,51.8234480511-142.5197786599,63.1706797863,79.3692938677,90.6962067193,58.2988546802,90.6962067193,58.2988546802-6.373936086-12.7477482778-23.7499306093-52.1684974568-24.2777261177-53.4068345711,92.2999121309,102.002800695,126.3211645837,77.826669017,127.9247461017,74.4772737645-5.8664594652-23.4860328577-41.0041357003-74.9034748285-47.5403751001-84.3425895256,34.0617663302,47.0735362613,191.9681469147,90.878952828,219.2095810999,95.6695023903,36.3962083442-.7104177086,45.3480414133-4.8515062235,50.2198665281-29.1494273358,9.7028885582-61.5467793834-82.5968996791-116.5978332517-82.5968996791-116.5978332517,87.4484059082,37.2487343795,144.1233601814-29.1494273316,104.7837626601-30.3674455596-48.7380744421,2.7809619657-113.0454969042-29.1697462313-130.1169558984-38.1622170772-3.1666491551-1.6848570705-6.3942549745-3.2681197004-9.7030124508-4.6687601285-199.1947329286-84.3425895324-318.5125714861,47.6824834107-318.5125714861,47.6824834107,0,0,18.3096722162-65.1802673823-9.2361736045-53.8534784221-57.5681180794,35.1986328991-39.3393497345,98.7956376533-38.8928297786,100.3992191712-40.6794051789-38.8321209029-76.5680130086-4.4455001535-76.5680130086-4.4455001535-.0000000007,14.5950325572,64.7741374115,11.3472317481,64.7741374115,11.3472317481ZM482.4377486312,449.804100764s148.9951852928,20.5832814631,110.1224266183-39.0960186503c0,0,109.6149499931,66.6621833685,83.1450140771,86.9002915171-26.4700598117,20.2179131561-193.2674406953-47.8042728667-193.2674406953-47.8042728667ZM234.6470495751,512.9747805427s28.6218796205,9.7028885567,58.8469690741-28.3578579684c0,0-5.7445461413,85.032812241-40.3949407508,85.0328122394-34.6506424008-.0000000016-18.4520283232-56.674954271-18.4520283232-56.674954271Z" style="fill: #ffb91d;"/>
    <path d="M773.9563418817,540.3581773724s-14.5863627569,51.9660683516-51.8352651088-69.497743685c0,0-2.9944824887-12.0280974613-12.8338637-27.0677761505,0,0,58.2017641463,42.9799339892,64.6691288088,96.5655198355Z" style="fill: #ffb915;"/>
    <path d="M482.4377486312,449.804100764s166.7973808836,68.0221860228,193.2674406953,47.8042728667c26.4699359161-20.2381081485-83.1450140771-86.9002915171-83.1450140771-86.9002915171,38.8727586746,59.6793001135-110.1224266183,39.0960186503-110.1224266183,39.0960186503Z" style="fill: #ffdd5b;"/>
    <path d="M253.0990778984,569.6497348137c34.6503946095.0000000016,40.3949407508-85.0328122394,40.3949407508-85.0328122394-30.2250894535,38.0607465251-58.8469690741,28.3578579684-58.8469690741,28.3578579684,0,0-16.1986140776,56.6749542695,18.4520283232,56.674954271Z" style="fill: #ffdd5b;"/>
  </g>
</svg>