<?xml version="1.0" encoding="UTF-8"?>
<svg id="headboy2" xmlns="http://www.w3.org/2000/svg" viewBox="0 0 1163.4585878503 1272.5891918199">
  <path d="M709.0330273336,671.974663314s50.0200259517,5.5577806636,30.5677936344,63.9144776066c-9.7261161584,25.0100129755-23.6205678123,37.5150194629-50.0200259537,40.2939097924-26.3994581414,2.7788903295,19.4522323193-104.208387399,19.4522323193-104.208387399Z" style="fill: #f89269;"/>
  <path d="M557.5835043041,859.5497606269l2.2252757589,37.9565501533s-47.2411356216,6.9472258245-94.4822712425-1.3894451696c0,0,.8358305963-22.6886447102-2.7788903283-52.7989162827l95.0358858119,16.2318112989Z" style="fill: #f89269;"/>
  <path d="M681.388741716,553.3814318484s27.6442856206,51.8998635296,10.970943631,176.9499284087c0,0,38.9044646233,133.3867358736-166.7334198459,137.5550713603-61.1355872746-.0000000028-126.4395100443-19.4522323203-168.1228650016-77.8089292661,0,0-46.2690597942,18.5076239153-78.6613597039-24.0818895862-12.4373127601-16.3526239629-17.4215000791-37.4092418807-12.0599415811-57.2422635778,4.8724054753-18.0235883922,17.9491107561-34.9260923387,51.8168366605-22.8842342376l34.7361291423-201.4695489715,202.8589941405-47.2411356122,125.1946825583,116.2230014823Z" style="fill: #faba83;"/>
  <path d="M691.4444697636,585.9763693524c5.6140911829,5.0216858366-150.9756326641-33.9270470112-180.4073784829-65.1038677771l34.0414065487,42.7254388355s-13.8944516548,33.3466839673-91.7033809106-27.7889033107c0,0,4.1683354958,5.5577806615,2.7788903302,9.7261161574-1.3894451655,4.1683354959-33.3466839683,6.9472258252-73.6405937613-29.1783484753l-29.1783484705-31.9572388039,202.8589941405-47.2411356122,125.1946825583,116.2230014823" style="fill: #f89269;"/>
  <ellipse cx="626.3610399959" cy="683.7849472156" rx="40.9886323773" ry="45.1569678733" style="fill: #fff; opacity: .7;"/>
  <path d="M667.3496723734,677.2463817337s-1.3894451635-40.5799720344-40.9886323754-41.6833549618c-39.5991872119-1.1033829274-40.9886323793,46.0968866597-40.9886323793,46.0968866597,0,0,8.3366709939-42.5415416791,40.9886323791-40.7025701355,32.6519613852,1.8389715436,40.9886323756,36.2890384376,40.9886323756,36.2890384376Z" style="fill: #3f200e; opacity: .7;"/>
  <path d="M599.266859272,683.0902246317c6.9063498153.0000000003,12.5050064882-5.5987414771,12.5050064886-12.5050064874.0000000001-3.5820785119-1.5142781291-6.803566152-3.9278285078-9.0833790415,3.6996182458-2.1876298512,7.8612541466-3.4216274463,12.2644995003-3.4216274461,15.3474157657.0000000007,27.788903306,14.9298359333,27.7889033051,33.3466839692-.0000000008,18.4168480359-12.4414875424,33.3466839674-27.7889033081,33.3466839667s-27.788903306-14.9298359333-27.7889033051-33.3466839692c.0000000001-3.3888927156.4244490392-6.6580407672,1.2075384348-9.7395153477,1.7200998711.8911309691,3.6686644196,1.4028443559,5.7396873922,1.402844356Z" style="fill: #2e1e0e;"/>
  <ellipse cx="445.7331685028" cy="683.3065615521" rx="42.3780775426" ry="47.024798694" style="fill: #fff; opacity: .7;"/>
  <path d="M488.1112460457,676.4975409288s-1.4365449995-42.258484256-42.3780775407-43.4075064886c-40.9415325411-1.1490222326-42.3780775448,48.003595407-42.3780775448,48.003595407,0,0,8.6192700107-44.3011904432,42.3780775445-42.386153391s42.3780775409,37.7900644727,42.3780775409,37.7900644727Z" style="fill: #3f200e; opacity: .7;"/>
  <path d="M426.0572119667,682.5831031098c7.1404633684.0000000003,12.9289050133-5.8303226124,12.9289050136-13.0222519454.0000000002-3.7302442759-1.5656095911-7.0849825347-4.0609752368-9.4590954842,3.8250290338-2.2781169378,8.1277373381-3.5631564617,12.6802452461-3.5631564615,15.8676671476.0000000007,28.7309000282,15.5473797813,28.7309000273,34.7260051907-.0000000009,19.1786254094-12.8632328828,34.7260051888-28.7309000305,34.7260051881s-28.7309000282-15.5473797813-28.7309000273-34.7260051907c.0000000002-3.529067722.4388371422-6.9334377732,1.2484719411-10.1423716023,1.7784083413.9279908817,3.7930259254,1.4608703051,5.9342530665,1.4608703052Z" style="fill: #2e1e0e;"/>
  <path d="M663.2329411133,609.6199498628c-5.3828408247-4.6593406083-26.6861169738-20.8297863774-58.0314893534-15.7605909175-1.2005933659.1941607956-2.429451317-.1532422927-3.3047721434-.9975978431-3.0323729057-2.9250999368-8.404388828-10.3242391066,4.7940807165-17.584889167,12.3559840279-6.7971878009,27.5942204812-6.4709118534,39.6024454795.923318038,16.808942042,10.350337515,27.524699601,29.7024928598,21.366359945,33.8454409491-1.3580358735.9136021138-3.1890968644.6455123171-4.4266246442-.4256810594Z" style="fill: #333330;"/>
  <path d="M403.0318358915,610.05098447c10.5166597564-7.2554488347,36.1142101914-21.4431441178,68.7958497607-15.4337342301,2.8685756829.5274657973,5.7479152936-1.0062289237,6.9683104597-3.8042210011,2.698652642-6.1871833992,3.9260688994-16.8359272325-15.9945813888-21.4555887516-12.8283081207-2.9749250413-26.3071902721-1.7930002027-38.3832177413,3.6696234029-18.5883098647,8.4084721168-26.7879530307,22.9712196232-27.9737151788,32.7090459657-.462639805,3.7993336918,3.5553888522,6.4066289498,6.5873540884,4.3148746143Z" style="fill: #333330;"/>
  <path d="M544.5475955619,719.2514494281c-1.0843088509-.0665541737-1.2901311689-1.5856264479-.2503363806-1.9002404021,8.1776143418-2.474326293,22.6457324948-3.8016895729,30.6438432866,6.579269943,8.773183516,11.3869469025,2.9546081939,27.9035909293-10.5679665676,32.7791709549-10.6563077634,3.8421441326-23.7322553927,3.8916306003-29.8889570326,1.2567492461-3.292391076-1.4090434074-2.8324618534-6.1341967345.6751322023-6.8567105832,8.6106165403-1.7736629716,28.1654076082-2.0994354623,29.7161114975-12.0683033189,2.4387248029-15.6776446878-11.0095544629-19.2179863177-20.3278270055-19.7899358398Z" style="fill: #f89269;"/>
  <path d="M544.4623932479,820.2485693495c-18.3065858024,0-39.4387371335-5.7554137922-60.4306033571-24.0086167661-3.1781404892-2.7634924723-3.5145764551-7.5816031124-.7498425217-10.7609850627,2.7647339334-3.1768990281,7.5791201901-3.5158179162,10.7609850627-.7498425217,47.4089175792,41.2276826198,93.6620348476,7.9167976171,95.6074044361,6.4791856302,3.38794742-2.5052685575,8.1638483817-1.7864625641,10.6678754781,1.6002433948,2.5040270964,3.38794742,1.7877040252,8.1638483817-1.6002433948,10.6678754781-.3612651884.2669141426-23.255049861,16.7721398474-54.2555757034,16.7721398474Z" style="fill: #f89269;"/>
  <path d="M348.7580691675,729.2892763679s-22.4096722002-52.798439962-60.7269269298-46.1990517502c0,0-78.2175895929-185.8382908664,23.2119074779-223.3533103258,0,0-55.5778066134,2.7788903282-55.5778066128-9.7261161598,0,0,28.8514201993-33.3466839667,63.7510134681.0000000029,0,0-12.3415423483-58.3566969445,37.678483605-88.9244905795,23.6205678111-9.7261161563,5.5577806589,52.7989162828,5.5577806589,52.7989162828,0,0,102.3558377455-113.2737937615,273.253521323-40.9057730472,2.8371198402,1.2014015818,5.6040668333,2.5579394708,8.3288829737,3.9959908433,14.6377167552,7.7252143213,69.8124372869,35.1310547353,111.6305774923,32.7414467255,31.9572388027-1.3894451639-13.8944516556,51.4094711166-38.9044646315,48.6305807849,0,0,62.2427613754,45.026678446,57.4380313038,96.292959485-.3424315723,3.6537314188-1.7449337158,7.1812103889-4.2076271719,9.901900302-4.2741721397,4.7219425539-12.4154524054,8.0870050633-25.4415008297-7.5442530473,0,0-5.1670121735,113.7353628469-51.0008107819,163.6071682153,0,0,12.9953989034-90.8247611738-8.9905275337-148.0576421763,0,0-123.4154235079-22.4967518738-155.3726623088-60.0117713392,0,0,15.2838968174,27.7889033073,20.8416774777,50.0200259529,0,0,15.2838968165,47.241135622-98.6506067367-41.6833549644,0,0,6.8654937576,11.353929928,7.6010823742,18.1819714522,0,0,2.1250337806,36.0063899962-68.7366696485-26.5186424469,0,0-4.1683354991,69.4722582664-34.7361291377,100.0400519023-15.2838968194,16.6733419833,6.9472258203,141.7234068641-6.9472258319,116.7133938875Z"/>
  <path d="M311.2343925919,459.737930564c-65.8300461411,27.3768534347-47.5439458379,106.0941826813-41.4660114108,126.6791197822.5748420668,1.9505088625,3.239439133,2.1943490441,4.1625028367.3830863185,6.2692649983-12.2254919243,12.7130659942-31.5391436843,12.7130659942-31.5391436843-.0000000018,40.2991075199,13.8974022159,62.5210902338,48.6236880121,50.0168934476,56.9654882619-41.6749869024,44.4612914779-122.2730956481,44.4612914779-122.2730956481,54.1965097357,68.0939119599,77.8116978807,50.0167871542,77.8116978807,50.0167871542-5.4684402686-10.9367742437-20.3759615987-44.7573223824-20.8287772801-45.8197385176,79.1875772641,87.5120514713,108.3756934284,66.7704358944,109.7514665188,63.8968633284-5.0330569276-20.1495537602-35.1789951794-64.2625173025-40.7866815849-72.3606899565,29.2228745483,40.3861629304,164.6967165526,77.9684826627,188.06817081,82.0784758886,31.225680435-.6094941576,38.9057957943-4.1622902455,43.0855183832-25.0083935734,8.3244742021-52.8033043072-70.8629967691-100.0336805993-70.8629967691-100.0336805993,75.0252870194,31.9570946881,123.6488687416-25.0083935698,89.897943672-26.0533773657-41.8142330419,2.3858922012-96.9859972106-25.0258259205-111.6322460195-32.7408059618-2.7167877937-1.4455024536-5.4858726098-2.8038432032-8.3245804943-4.0055054753-170.8966773665-72.3606899623-273.2639531485,40.9086016667-273.2639531485,40.9086016667,0,0,15.7085586522-55.9206107597-7.9240618333-46.2029311301-49.3898606523,30.1982352739-33.7507124839,84.7605052856-33.3676261657,86.1362783759-34.9003966125-33.3155417306-65.6905874134-3.8139623187-65.6905874134-3.8139623187-.0000000006,12.5216291285,55.5721765338,9.7352182688,55.5721765338,9.7352182688ZM524.2413339123,464.9450983204s127.8285913277,17.6591738127,94.4781849194-33.5419495655c0,0,94.0428015747,57.1920023998,71.3332447924,74.5550390018-22.709663077,17.345710556-165.8114297118-41.0130894363-165.8114297118-41.0130894363ZM311.6523435891,519.1416080495s24.5557904831,8.3244742008,50.487035174-24.3292763457c0,0-4.928462887,72.9528580674-34.6563438462,72.952858066-29.7280935487-.0000000013-15.8306913278-48.6235817203-15.8306913278-48.6235817203Z" style="fill: #333330;"/>
  <path d="M524.2413339123,464.9450983204s143.1017666349,58.3587999923,165.8114297118,41.0130894363c22.7095567822-17.363036602-71.3332447924-74.5550390018-71.3332447924-74.5550390018,33.3504064083,51.2011233781-94.4781849194,33.5419495655-94.4781849194,33.5419495655Z" style="fill: #666;"/>
  <path d="M327.4830349169,567.7651897699c29.7278809592.0000000013,34.6563438462-72.952858066,34.6563438462-72.952858066-25.9312446909,32.6537505465-50.487035174,24.3292763457-50.487035174,24.3292763457,0,0-13.8974022209,48.623581719,15.8306913278,48.6235817203Z" style="fill: #666;"/>
  <path d="M774.3461345997,542.6348574161s-12.5141909796,44.5836508151-44.4714297776-59.6247365862c0,0-2.5690795145-10.3193586545-11.0106559137-23.222466477,0,0,49.9334895217,36.874107082,55.4820856913,82.8472030632Z" style="fill: #333330;"/>
</svg>