<?xml version="1.0" encoding="UTF-8"?>
<svg id="headgirl1" xmlns="http://www.w3.org/2000/svg" viewBox="0 0 1163.4585878503 1272.5891918199">
  <path d="M480.7799322439,349.322580001s.5356516189-192.4744246039-206.0382623512-112.4680198282c0,0-118.6980267574,41.314782794-154.7664879268,232.1497318902,0,0-34.1010905601,81.973775385-100.9916912743,17.0505452801,0,0,5.9021118277,121.9769777728,114.1074953359,93.1222088373,0,0-22.2968669047,36.7242513725-60.3326986833,32.789510154,0,0,75.4158733542,70.8253419326,155.4222781299-19.6737060924,80.0064047757-90.499048025,252.5993667699-242.9702702411,252.5993667699-242.9702702411Z" style="fill: #d36909;"/>
  <path d="M480.7816453349,349.3263937065s-39.9114121728,35.2569888377-90.2465824057,81.913155618l-61.7624165885-52.3976032038s-101.1441012563-26.5054277508-144.5115005815,110.3416949438c-.501659092,1.5328755774-.975589994,3.0657511548-1.4493507845,4.6265250336-1.3098592771,4.4593053363-2.7313117601,8.8908824827-4.5151019393,13.1829681217-33.1666575654,78.986725859-126.9527519164,60.758928293-148.1905040342,25.4742112654-10.0057938726-23.5789979919-11.1205351509-46.4054222901-11.1205351509-46.4054222901,39.0195170832,37.8652532112,66.8764530999,25.7502291407,83.3163447312,9.0805470661,10.3392314843-10.4837492609,17.045522798-24.0145485133,20.1376603771-38.410637963,38.7357119772-180.3421614523,152.290915395-219.8651929978,152.290915395-219.8651929978,206.5804582632-80.0177722329,206.0510709814,112.459754406,206.0510709814,112.459754406Z" style="fill: #ffb91d;"/>
  <path d="M712.4443303818,674.9705286645s54.8320759908,6.0924528904,33.5084908803,70.0632082123c-10.661792555,27.4160379951-25.8929247754,41.1240569921-54.8320759931,44.1702834348-28.9391512176,3.0462264427,21.3235851128-114.2334916471,21.3235851128-114.2334916471Z" style="fill: #f89269;"/>
  <path d="M547.8892995599,878.6566514365l2.9051104301,49.5525329541s-51.7858495475,7.6155661076-103.5716990942-1.5231132266c0,0,.916239564-24.8713483691-3.0462264413-57.8783024352l103.7128151055,9.8488827077Z" style="fill: #f89269;"/>
  <path d="M678.7654775487,542.0191492314s30.303734175,56.8927585867,12.0263755051,193.9729485636c0,0,42.6471702088,146.2188693115-182.7735866437,150.7882089673-67.0169817669-.000000003-138.6033031987-21.3235851139-184.2966998551-85.2943404388,0,0-50.7202576246,20.2881030472-86.2287767902-26.3986268433-13.6338129661-17.9257867769-19.0974914155-41.0081033453-13.2201377476-62.7491107145,5.3411429162-19.7575021114,19.6758595426-38.2860686843,56.8017443277-25.0857540922l38.0778305593-220.8514171846,222.3745304106-51.7858495371,137.238720234,127.4039412797Z" style="fill: #faba83;"/>
  <ellipse cx="425.7444428467" cy="693.4028902429" rx="46.4549532702" ry="51.5487004731" style="fill: #fff; opacity: .7;"/>
  <path d="M472.1993961172,685.9388250183s-1.5747441765-46.3238548141-46.4549532681-47.5834158234c-22.3645076072-.62765888-33.9754705324,12.4371541443-39.996687351,25.7039540661-.6456329963,1.4225502989-.9523112984,4.4201522486-7.9467790886,2.041458832.44736037,4.0598877664,4.4171387259,6.8100797381,4.4171387259,6.8100797381-.5856471158,1.8457982376-4.9457666558,7.6028747965-12.5057977172,1.6338490358-1.146230648,6.0048764176,9.5771721583,16.4323181753,9.5771721583,16.4323181753,0,0,9.4484650741-48.5630743817,46.4549532723-46.4638060352,37.0064881982,2.0992683465,46.4549532683,41.4255620112,46.4549532683,41.4255620112Z" style="fill: #3f200e; opacity: .7;"/>
  <path d="M404.1756106948,692.6098333115c7.8273935804.0000000004,14.1726976082-6.3912140478,14.1726976085-14.2750247458.0000000002-4.0891029884-1.7162251006-7.7665753534-4.4516510846-10.3690838324,4.1930062741-2.4972774138,8.9096457444-3.9059409138,13.9001161572-3.9059409136,17.3941759182.0000000008,31.4948835723,17.0430761162,31.4948835713,38.0667326585-.000000001,21.0236565423-14.1007076566,38.0667326564-31.4948835747,38.0667326556-17.3941759182-.0000000008-31.4948835723-17.0430761162-31.4948835713-38.0667326585.0000000002-3.8685727532.4810543591-7.6004516116,1.3685780254-11.1180928007,1.9494956161,1.0172658966,4.1579243876,1.6014096366,6.5051428683,1.6014096367Z" style="fill: #2e1e0e;"/>
  <path d="M670.4340047132,693.4028902426c0,28.4695611433-20.7985910264,51.5487004731-46.4549532702,51.5487004731-25.6563622438,0-46.4549532702-23.0791393298-46.4549532702-51.5487004731s20.7985910264-51.5487004731,46.4549532702-51.5487004731c25.6563622438,0,46.4549532702,23.0791393298,46.4549532702,51.5487004731Z" style="fill: #fff; opacity: .7;"/>
  <path d="M577.5240981728,685.938825016s1.5747441786-46.323854814,46.4549532702-47.5834158213c22.3645076072-.627658879,33.9754705319,12.4371541458,39.9966873498,25.7039540679.6456329963,1.4225502989.9523112982,4.4201522486,7.9467790885,2.0414588324-.4473603702,4.0598877664-4.4171387262,6.8100797379-4.4171387262,6.8100797379.5856471158,1.8457982376,4.9457666554,7.6028747967,12.5057977171,1.6338490363,1.1462306478,6.0048764177-9.577172159,16.4323181749-9.577172159,16.4323181749,0,0-9.4484650719-48.5630743821-46.4549532702-46.4638060373-37.0064881983,2.0992683448-46.4549532702,41.4255620092-46.4549532702,41.4255620092Z" style="fill: #3f200e; opacity: .7;"/>
  <path d="M598.3055582357,692.6098333112c7.8273935804.0000000004,14.1726976081-6.3912140478,14.1726976085-14.2750247458.0000000002-4.0891029884-1.7162251006-7.7665753534-4.4516510846-10.3690838324,4.1930062741-2.4972774138,8.9096457444-3.9059409138,13.9001161572-3.9059409136,17.3941759182.0000000008,31.4948835723,17.0430761162,31.4948835714,38.0667326585-.000000001,21.0236565423-14.1007076566,38.0667326564-31.4948835747,38.0667326556-17.3941759182-.0000000008-31.4948835723-17.0430761162-31.4948835713-38.0667326585.0000000002-3.8685727532.4810543591-7.6004516116,1.3685780254-11.1180928007,1.9494956161,1.0172658966,4.1579243876,1.6014096367,6.5051428683,1.6014096368Z" style="fill: #2e1e0e;"/>
  <path d="M656.7089108525,627.3558075792c-5.8804366072-4.7777271954-29.1530112573-21.3590388034-63.3959846634-16.1610429829-1.3115775496.199094119-2.6540324942-.1571359406-3.6102689497-1.0229452504-3.3126888241-2.9994221698-9.1812998629-10.5865619406,5.2372508609-18.0316938093,13.4981849106-6.9698937551,30.1450608612-6.6353276441,43.2633395114.9467781111,18.3627793078,10.6133234689,30.0691133936,30.4571869367,23.3414899821,34.7054008836-1.4835742175.9368153204-3.4839005195.6619137796-4.8358267414-.4364969521Z" style="fill: #de8413;"/>
  <path d="M382.3275917128,630.5849024675c11.4888314612-7.439798488,39.4526478802-21.9879810085,75.1554144987-15.8258813762,3.1337500041.5408678816,6.2792589654-1.0317956333,7.6124688157-3.900880331,2.9481190887-6.3443900918,4.2889990678-17.2637019187-17.4731382516-22.0007418411-14.0141711671-3.0505132526-28.7390561505-1.8385575449-41.9314050073,3.7628628175-20.3066338678,8.6221182956-29.2642611523,23.5548825323-30.55963647,33.5401318738-.5054067422,3.8958688428,3.8840529453,6.569411412,7.1962964145,4.4245088571Z" style="fill: #de8413;"/>
  <path d="M536.1558712964,736.2701668588c-.9849902428-.060458062-1.1719600115-1.4403890355-.2274065107-1.7261855362,7.4285756588-2.247687321,20.571468665-3.4534691223,27.8369826231,5.9766335888,7.9695929391,10.3439454408,2.6839772081,25.347727064-9.599980621,29.776722317-9.6802300959,3.4902181967-21.5584701565,3.5351718903-27.1512411077,1.1416357471-2.9908204501-1.2799803367-2.5730190125-5.5723274104.6132926346-6.228661711,7.8219164862-1.6112021217,25.5855623209-1.9071350788,26.9942275727-10.962892175,2.2153467933-14.2416314645-10.0011207277-17.4576911315-18.4658745911-17.9772522308Z" style="fill: #f89269;"/>
  <path d="M540.8716813381,838.0872302245c-15.2561756154,1.2432136496-33.2600923104-2.1296205863-51.998152882-15.9558357348-2.8369160961-2.0932554022-3.4453771026-6.0962897374-1.357656788-8.9406635131,2.0847008428-2.8430835014,6.0771692359-3.4534986102,8.9174429291-1.3573841562,42.0949577275,31.0602977991,73.5016749417,1.794493299,75.0350157281.467645497,2.6598879847-2.3031034749,6.6847012717-2.0181252498,8.9909307017.6436179857s2.0362541736,6.685193871-.612019164,9.0030141757c-.2839487421.2476460312-13.1378380788,14.0341102382-38.9755605249,16.1396057457Z" style="fill: #f89269;"/>
  <path d="M601.8423026507,503.7308403817s-56.3979377824,77.3832447013-100.9916715918,70.8253426705c0,0-11.1484334524,5.9021118277,15.7389648739-43.9379436063,0,0-83.2853557911,80.0064047757-191.4907392993,89.1874676188,0,0,2.6231608123,91.8106284312-9.1810628431,102.9590618835,0,0-22.4699002694-27.0866449433-34.8433974456-35.5122942748,0,0-24.259694607-11.0078232561-42.4980368255,1.6754221989-4.7962886647-7.9470614663-90.5408577173-135.2133314168,64.8814204126-274.3126889206,0,0,108.4794241677-86.6361412575,264.0925770694-36.1402956203,0,0,32.9803849257,9.1810628431,45.4403987843,28.8547689355,0,0,86.5643068065,1.9673706092,116.7306561482,100.3359010712,0,0,18.9130231341,94.6553991921-38.92955888,228.3265154569,8.8240308564-71.3367306841,1.882045776-107.6318683896,1.882045776-107.6318683896-33.8341754619-29.2139445573-75.00084109-54.0646543012-90.831596179-124.6293890237Z" style="fill: #d36909;"/>
  <path d="M349.0099103915,408.3436982781s92.4974814193-30.4942444432,140.6825299532-23.6084473109l-8.9125081007-35.4126709663s-74.8736774423-72.7927125419-152.014272226,29.5105591386c0,0,10.4073973274,22.6247620062,20.2442503736,29.5105591386Z" style="fill: #2e1e0e;"/>
  <path d="M730.4541826366,596.9023022668c-.0035814717.0274959192-.011767389.0876480103-.0277578789.1114211057-25.4718297031,37.7410008674-127.9785248308-35.202340488-122.3347324625-99.1237496412.9677648607-10.9605877242,3.6599470397-21.7070389161,4.3006911794-32.6916146764,1.2162378177-20.8505324099,1.4492805128-39.7032211181,1.4492805128-39.7032211181l-11.2663652173,53.7470315935s-18.3885085927,77.6929239607-94.4765328827,84.9116094702c0,0,22.1854438104-53.4846162921,36.5389498133-88.4629623382-20.7360930258,27.7596605365-44.7609535067,64.3265086513-97.3257764078,92.83857277-37.5424381088,20.4016536312-89.6335002194,36.7063396222-165.4427116062,42.7543171389,0,0,.390065886-31.8845264782,10.8417222476-70.5138075638,10.7860957562-39.7999890785,32.2469439013-86.7348006391,75.0012610402-113.2123300884-62.0692578786,33.9385689448-99.3673256788,111.9776031113-102.9741717958,159.5883690322,0,0-38.4731746666,94.9078442345-50.2456941616,41.4135630135-12.6281915587-57.3824516358-.1873891386-138.192100784,88.9769724834-213.9341536885,0,0,108.4742098602-86.6512738575,264.0785174027-36.1487138157,0,0,32.971369455,9.1695252744,45.429832296,28.8465035133,0,0,86.5675789531,1.978908178,116.7520101566,100.3359010712,0,0,9.0764321532,25.1232812459.7245052807,89.2432642218Z" style="fill: #ffb91d;"/>
  <path d="M484.8514648078,480.7423699784s-44.6107204522,66.5620606311-160.6655624899,86.6500343429c-2.0148668775-46.8276595072,48.8980123777-119.211073781,48.8980123777-119.211073781-32.9332738908,50.5607217771,111.7675501121,32.5610394382,111.7675501121,32.5610394382Z" style="fill: #ffdd5b;"/>
  <path d="M698.8285660937,573.2642847572c-31.9304305461,6.5123562854-63.0215599659-71.1555883307-63.0215599659-71.1555883307,38.2391305465,49.572187873,63.3733551284,14.3112207697,63.3733551284,14.3112207697,0,0,20.1065179698,38.140781703-.3517951625,56.844367561Z" style="fill: #ffdd5b;"/>
  <path d="M324.1276385431,318.2059784908s29.8276654084-74.7600831511,96.785341321-36.0684611694c0,0-52.396141048-80.0064047757-178.9636502424-.6557902031,0,0,78.4481012393-30.1663493417,82.1783089214,36.7242513725Z" style="fill: #ffdd5b;"/>
</svg>