<?xml version="1.0" encoding="UTF-8"?>
<svg id="headgirl2" xmlns="http://www.w3.org/2000/svg" viewBox="0 0 1163.4585878503 1272.5891918199">
  <path d="M480.646290652,341.1827272596s.5575161273-200.3309465103-214.4484400932-117.0587983867c0,0-123.5431050029,43.0011912441-161.0838275176,241.6257412765,0,0-35.4930467412,85.319823897-105.1140230412,17.7465233706,0,0,6.1430273206,126.9558979588,118.7651948647,96.9233199471,0,0-23.2069921,38.2232811059-62.7953903882,34.1279295588,0,0,78.4942379853,73.7163278471,161.7663861088-20.4767577353,83.2721481235-94.1930855823,262.9101000668-252.8879580309,262.9101000668-252.8879580309Z"/>
  <path d="M480.6480736689,341.186696635s-41.5405371056,36.6961270802-93.9303146892,85.2567297206l-64.283467268-54.5363960239s-105.2726541737-27.5873401877-150.410246726,114.8456800592c-.5221360756,1.5954452958-1.0154121376,3.1908905916-1.5085111442,4.8153729564-1.3633257993,4.6413275979-2.8427998746,9.2537951821-4.6994017358,13.7210774214-34.5204715709,82.2108474186-132.1347758583,63.2390180614-154.2394216691,26.5140309675C1.1624948274,507.2617338506.0022514556,483.503568606.0022514556,483.503568606c40.612236175,39.4108569555,69.606251201,26.801315485,86.7171949423,9.4512015938,10.7612636521-10.911680431,17.7412958783-24.9947869364,20.9596499491-39.9785035078,40.3168465634-187.7034622849,158.5072057691-228.8397656393,158.5072057691-228.8397656393,215.0127676421-83.2839795835,214.4617715528,117.0501955823,214.4617715528,117.0501955823Z" style="fill: #333330;"/>
  <path d="M721.7668875688,680.123144508s57.0702403967,6.3411378245,34.8762580171,72.9230849533c-11.0969911896,28.535120198-26.9498357449,42.8026802965-57.070240399,45.9732492061-30.1204046541,3.1705689096,22.1939823819-118.8963341594,22.1939823819-118.8963341594Z" style="fill: #f89269;"/>
  <path d="M550.4949632836,892.1234341564l3.0236927497,51.5751942062s-53.8996714864,7.926422275-107.799342972-1.5852844603c0,0,.9536391106-25.8865600977-3.1705689082-60.2408093081l107.9462191306,10.2508995622Z" style="fill: #f89269;"/>
  <path d="M686.7133136754,541.7448860122s31.5406878735,59.2150370144,12.5172744014,201.890638006c0,0,44.3879647464,152.1873077273-190.2341346636,156.9431610832-69.7525160408-.0000000031-144.2608854469-22.1939823831-191.8194191081-88.775929515,0,0-52.7905836742,21.1162334669-89.7485081789-27.4761798248-14.1903250869-18.6574909334-19.8770228258-42.6819935929-13.7597642566-65.3104367917,5.5591604862-20.5639741841,20.4789990862-39.848849495,59.1203076877-26.1097175459l39.6321113971-229.8662460416,231.4515305013-53.8996714756,142.8406022198,132.6043821055Z" style="fill: #faba83;"/>
  <ellipse cx="423.3643338139" cy="699.3078878785" rx="48.3511758919" ry="53.6528423369" style="fill: #fff; opacity: .7;"/>
  <path d="M471.7155097062,691.539150529s-1.6390229094-48.2147261903-48.3511758897-49.5257006208c-23.2773937961-.653278989-35.3622990893,12.9448204183-41.6292930907,26.7531515302-.6719867822,1.4806167023-.9911832399,4.6005763389-8.271154881,2.1247881682.46562096,4.2256063924,4.5974398086,7.0880571409,4.5974398086,7.0880571409-.6095523666,1.9211409971-5.1476455504,7.9132129233-13.0162659205,1.7005403417-1.1930180912,6.2499866094,9.9680981892,17.103061148,9.9680981892,17.103061148,0,0,9.8341374718-50.5453473954,48.3511758941-48.3603900137,38.5170384223,2.1849573817,48.3511758899,43.1164923055,48.3511758899,43.1164923055Z" style="fill: #3f200e; opacity: .7;"/>
  <path d="M400.9150937708,698.4824595339c8.1468962326.0000000004,14.7512062046-6.6520939714,14.751206205-14.8577101849.0000000002-4.2560141366-1.786278876-8.0835954953-4.633360911-10.7923345289,4.3641586011-2.5992125917,9.2733243324-4.0653756564,14.4674983811-4.0653756562,18.1041805041.0000000008,32.780458231,17.7387493264,32.78045823,39.6205604964-.000000001,21.8818111699-14.6762777295,39.6205604942-32.7804582336,39.6205604934-18.1041805041-.0000000008-32.780458231-17.7387493264-32.78045823-39.6205604964.0000000002-4.0264821827.500690288-7.9106908275,1.4244413603-11.5719169377,2.0290711496,1.0587891889,4.3276447238,1.6667768142,6.7706731981,1.6667768143Z" style="fill: #2e1e0e;"/>
  <ellipse cx="629.6905865248" cy="699.3078878783" rx="48.3511758919" ry="53.6528423369" style="fill: #fff; opacity: .7;"/>
  <path d="M581.3394106329,691.5391505266s1.6390229116-48.2147261902,48.3511758919-49.5257006186c23.2773937961-.653278988,35.3622990888,12.9448204199,41.6292930895,26.7531515321.6719867821,1.4806167023.9911832397,4.600576339,8.2711548809,2.1247881686-.4656209602,4.2256063923-4.597439809,7.0880571407-4.597439809,7.0880571407.6095523666,1.9211409972,5.14764555,7.9132129235,13.0162659205,1.7005403423,1.1930180909,6.2499866094-9.96809819,17.1030611475-9.96809819,17.1030611475,0,0-9.8341374696-50.5453473958-48.3511758919-48.3603900159-38.5170384223,2.18495738-48.3511758919,43.1164923033-48.3511758919,43.1164923033Z" style="fill: #3f200e; opacity: .7;"/>
  <path d="M602.9691392207,698.4824595336c8.1468962326.0000000004,14.7512062046-6.6520939714,14.751206205-14.8577101849.0000000002-4.2560141366-1.7862788759-8.0835954953-4.633360911-10.7923345289,4.3641586011-2.5992125917,9.2733243324-4.0653756564,14.4674983811-4.0653756562,18.1041805041.0000000008,32.780458231,17.7387493264,32.78045823,39.6205604964-.000000001,21.8818111699-14.6762777295,39.6205604942-32.7804582336,39.6205604934-18.1041805041-.0000000008-32.780458231-17.7387493264-32.78045823-39.6205604964.0000000002-4.0264821827.500690288-7.9106908276,1.4244413603-11.5719169377,2.0290711496,1.0587891889,4.3276447237,1.6667768142,6.7706731981,1.6667768143Z" style="fill: #2e1e0e;"/>
  <path d="M663.7564304838,630.5648607908c-6.1204673496-4.9727469673-30.3429941449-22.2308832398-65.9837151803-16.8207129026-1.3651142092.207220847-2.7623661831-.1635499978-3.7576347992-1.0647003655-3.4479078921-3.1218541554-9.5560669711-11.0186897725,5.4510277105-18.7677209345,14.0491608944-7.2543945302,31.3755377493-6.9061719243,45.0292851705.9854241961,19.1123208544,11.0465436669,31.2964902182,31.7004043505,24.2942551494,36.12202412-1.5441315272.975054739-3.6261081963.6889321231-5.0332180509-.4543141134Z" style="fill: #333330;"/>
  <path d="M378.1752709031,633.925762566c11.9577886031-7.7434800806,41.0630467318-22.8854979375,78.2231475837-16.4718704939,3.2616650536.5629453102,6.5355690478-1.073912008,7.9231985563-4.0601085082,3.0684569582-6.6033587306,4.4640696788-17.9683807485-18.1863659634-22.8987796484-14.5862089482-3.1750307008-29.9121420017-1.9136047501-43.6429830659,3.9164573235-21.1355206882,8.9740604376-30.4587850964,24.5163580686-31.8070357225,34.9091905492-.5260366994,4.0548924584,4.0425942534,6.8375650889,7.4900386119,4.6051107777Z" style="fill: #333330;"/>
  <path d="M538.2825937978,743.9249434508c-1.0251960906-.0629258708-1.2197976893-1.4991835899-.2366889088-1.7966458818,7.7317991521-2.3394345997,21.411165651-3.5944346343,28.9732471644,6.22059095,8.2948999592,10.7661700253,2.793533196,26.3823838677-9.9918376597,30.9921641694-10.0753627997,3.6326837517-22.4384550865,3.6794723887-28.2595146925,1.1882356331-3.1129013262-1.3322272447-2.6780458507-5.7997815901.6383263347-6.4829064881,8.1411955715-1.6769690141,26.6299272087-1.9849815177,28.0960920968-11.4103812515,2.3057739794-14.8229538392-10.4093517134-18.1702883146-19.2196243349-18.7110571312Z" style="fill: #f89269;"/>
  <path d="M543.1908962446,849.8980290539c-15.8789101849,1.2939597958-34.6177201842-2.2165485552-54.1206407297-16.6071293976-2.9527148236-2.178698998-3.5860123103-6.3451312859-1.4130743341-9.3056082006,2.169795254-2.9591339734,6.3252303137-3.5944653258,9.2814397867-1.4127905739,43.8132117668,32.328133308,76.5019048191,1.8677418667,78.0978343131.4867340959,2.7684606861-2.3971127592,6.9575609105-2.1005021436,9.3579272217.6698895219s2.1193710633,6.958073617-.6370008829,9.3705039252c-.2955391106.2577545766-13.6741052368,14.6069619028-40.5664853748,16.7984006291Z" style="fill: #f89269;"/>
  <path d="M606.6502483222,501.8937049115s-58.7000183553,80.5419145268-105.1140025553,73.716328615c0,0-11.60349605,6.1430273206,16.3814061882-45.7314256088,0,0-86.6849410794,83.2721481235-199.3071086235,92.8279684,0,0,2.7302343647,95.5582027647-9.5558202765,107.1616988147,0,0-23.3870884312-28.192281808-36.265653498-36.9618537084,0,0-25.2499395318-11.4571463531-44.2327439586,1.74381046-4.9920660883-8.271448785-94.2366018846-140.7325400207,67.5297842242-285.5097279773,0,0,112.9073941389-90.1725006625,274.8724462459-37.6154891419,0,0,34.326595557,9.5558202765,47.2952087894,30.0325780118,0,0,90.0977340353,2.0476757735,121.4954292294,104.43146445,0,0,19.6850248215,98.519092869-40.5186060107,237.6464667917,9.1842147711-74.2485907326,1.9588681065-112.025242385,1.9588681065-112.025242385-35.2152365626-30.4064146523-78.0622647168-56.2714936865-94.5392078611-129.7165767217Z"/>
  <path d="M343.4976110095,402.6130004655s96.273092078-31.7389744897,146.4249831684-24.5721092824l-9.2763035259-36.8581639235s-77.9299104366-75.7640036206-158.2192704344,30.7151366029c0,0,10.8322119242,23.5482713956,21.0705907919,30.7151366029Z" style="fill: #ffb91d;"/>
  <path d="M740.5118754088,598.868288343c-.0037276621.0286182621-.0122477165.0912256727-.0288909145.1159691507-26.5115521933,39.2815328144-133.2024193089-36.6392480656-127.3282556668-103.1698347878,1.0072675938-11.4079827365,3.8093406755-22.5930882036,4.4762390452-34.0260381323,1.2658828502-21.701620366,1.5084380041-41.3238479994,1.5084380041-41.3238479994l-11.7262416155,55.9409060887s-19.1391003707,80.8642344365-98.3329255009,88.3775760332c0,0,23.0910208794-55.6677793821,38.0304158106-92.0738898832-21.5825097352,28.8927689044-46.5880295585,66.952221784-101.298470941,96.6281062742-39.0748650171,21.2344190181-93.292207393,38.2046382244-172.1958388887,44.4994852561,0,0,.4059877997-33.1860057852,11.2842653466-73.3920771052,11.226368264-41.424565885,33.5632165526-90.2751871744,78.0627018087-117.8334902932-64.6028333666,35.3238912334-103.4233532398,116.5483635834-107.1774254912,166.1025306923,0,0-40.0435928673,98.7818423454-52.296649231,43.1040035264-13.143655698-59.724718611-.1950380866-143.8328983567,92.6088811639-222.66663006,0,0,112.901966991-90.188250953,274.8578126844-37.6242509556,0,0,34.317212088,9.5438117612,47.2842109927,30.0239752073,0,0,90.101139746,2.0596842888,121.5176548769,104.43146445,0,0,9.4469187163,26.1487765026.7540785168,92.8860425379Z" style="fill: #333330;"/>
  <path d="M484.8840171653,477.966879079s-46.4316642125,69.2790256957-167.2236935969,90.1869608431c-2.0971107694-48.7390954473,50.8939570661-124.0770938487,50.8939570661-124.0770938487-34.2775615192,52.6245358088,116.3297365308,33.8901330056,116.3297365308,33.8901330056Z" style="fill: #666;"/>
  <path d="M707.5953478803,574.2654018501c-33.2337835894,6.7781810563-65.5940070194-74.0600544156-65.5940070194-74.0600544156,39.7999954117,51.5956514099,65.9601619411,14.8953836772,65.9601619411,14.8953836772,0,0,20.9272363547,39.6976321136-.3661549217,59.1646707385Z" style="fill: #666;"/>
  <path d="M317.5996815523,308.7959920061s31.0451866826-77.8116793941,100.7359760916-37.5407225147c0,0-54.5348741851-83.2721481235-186.2686822822-.6825585912,0,0,81.6502369369-31.3976951941,85.5327061905,38.2232811059Z" style="fill: #666;"/>
</svg>